<svg width="20" height="20" viewBox="0 0 20 20" fill="none" xmlns="http://www.w3.org/2000/svg">
<g clip-path="url(#clip0_9_70)">
<path d="M6.25171 0H8.40004V0.898333H7.15004V1.79667H8.40004V2.695H6.25171V0ZM8.82921 0H10.9784V0.781667H9.72838V0.9375H10.9784V2.73417H8.82921V1.91417H10.0792V1.7575H8.82921V0ZM11.4084 0H13.5559V0.781667H12.3059V0.9375H13.5559V2.73417H11.4084V1.91417H12.6584V1.7575H11.4084V0Z" fill="#3591C5"/>
<path fill-rule="evenodd" clip-rule="evenodd" d="M9.9925 20L4.20583 18.3933L2.5 3.93079H17.5L15.795 18.3916L9.9925 20ZM5.8725 10.4775L6.03167 12.2508H12.1792L11.9733 14.5508L9.995 15.0858H9.99333L8.01833 14.5525L7.89167 13.1383H6.11083L6.35917 15.9233L9.9925 16.9316L13.6317 15.9233L14.075 10.9533L14.1183 10.4775L14.4383 6.88662H5.55333L5.715 8.66079H12.495L12.3333 10.4775H5.8725Z" fill="#3591C5"/>
</g>
<defs>
<clipPath id="clip0_9_70">
<rect width="20" height="20" fill="white"/>
</clipPath>
</defs>
</svg>
