<svg width="53" height="43" viewBox="0 0 53 43" fill="none" xmlns="http://www.w3.org/2000/svg">
<path d="M26.152 28.672C25.288 28.672 24.484 28.576 23.74 28.384L22.408 29.716C22.816 29.932 23.368 30.112 24.064 30.256C24.76 30.4 25.888 30.544 27.448 30.688C29.824 30.904 31.552 31.468 32.632 32.38C33.712 33.292 34.252 34.552 34.252 36.16C34.252 37.216 33.964 38.212 33.388 39.148C32.812 40.108 31.924 40.876 30.724 41.452C29.524 42.052 27.988 42.352 26.116 42.352C23.572 42.352 21.52 41.872 19.96 40.912C18.4 39.976 17.62 38.56 17.62 36.664C17.62 35.056 18.4 33.664 19.96 32.488C19.48 32.272 19.06 32.044 18.7 31.804C18.364 31.564 18.064 31.312 17.8 31.048V30.22L20.932 26.908C19.54 25.684 18.844 24.112 18.844 22.192C18.844 20.992 19.132 19.9 19.708 18.916C20.308 17.932 21.148 17.152 22.228 16.576C23.308 16 24.616 15.712 26.152 15.712C27.16 15.712 28.096 15.856 28.96 16.144H35.728V18.952L32.668 19.168C33.148 20.08 33.388 21.088 33.388 22.192C33.388 23.392 33.1 24.484 32.524 25.468C31.948 26.452 31.108 27.232 30.004 27.808C28.924 28.384 27.64 28.672 26.152 28.672ZM26.152 25.144C27.088 25.144 27.856 24.892 28.456 24.388C29.08 23.884 29.392 23.164 29.392 22.228C29.392 21.292 29.08 20.572 28.456 20.068C27.856 19.564 27.088 19.312 26.152 19.312C25.168 19.312 24.376 19.564 23.776 20.068C23.176 20.572 22.876 21.292 22.876 22.228C22.876 23.164 23.176 23.884 23.776 24.388C24.376 24.892 25.168 25.144 26.152 25.144ZM21.832 36.196C21.832 37.084 22.24 37.744 23.056 38.176C23.896 38.632 24.916 38.86 26.116 38.86C27.268 38.86 28.204 38.62 28.924 38.14C29.644 37.684 30.004 37.06 30.004 36.268C30.004 35.62 29.764 35.08 29.284 34.648C28.828 34.216 27.904 33.952 26.512 33.856C25.528 33.784 24.616 33.676 23.776 33.532C23.08 33.916 22.576 34.336 22.264 34.792C21.976 35.248 21.832 35.716 21.832 36.196Z" fill="url(#paint0_linear_47_22)"/>
<line x1="29.5" y1="12" x2="29.5" y2="4" stroke="#FFCE31"/>
<line x1="35.5387" y1="12.9769" x2="38.5387" y2="5.80701" stroke="#FFCE31"/>
<line x1="38.7986" y1="17.2149" x2="44.8723" y2="14.5424" stroke="#FFCE31"/>
<defs>
<linearGradient id="paint0_linear_47_22" x1="31.5" y1="10.0333" x2="-6.49056" y2="38.4524" gradientUnits="userSpaceOnUse">
<stop offset="0.272445" stop-color="#FFCE31"/>
<stop offset="0.618564" stop-color="#E4E83C"/>
<stop offset="1" stop-color="#E4E83C"/>
</linearGradient>
</defs>
</svg>
