<svg width="679" height="739" viewBox="0 0 679 739" fill="none" xmlns="http://www.w3.org/2000/svg">
<g opacity="0.39">
<path opacity="0.39" d="M39.9457 297.077C49.4047 297.077 57.0728 289.349 57.0728 279.816C57.0728 270.283 49.4047 262.554 39.9457 262.554C30.4867 262.554 22.8186 270.283 22.8186 279.816C22.8186 289.349 30.4867 297.077 39.9457 297.077Z" fill="white"/>
<path opacity="0.39" d="M39.9456 287.213C43.9996 287.213 47.2861 283.901 47.2861 279.816C47.2861 275.73 43.9996 272.418 39.9456 272.418C35.8916 272.418 32.6052 275.73 32.6052 279.816C32.6052 283.901 35.8916 287.213 39.9456 287.213Z" fill="white"/>
<path opacity="0.39" d="M66.6132 255.053L56.0184 261.219L56.0344 261.246C55.2606 260.565 54.445 259.933 53.5923 259.356L53.6209 259.364L56.7871 247.454C57.0388 246.507 56.9069 245.497 56.4203 244.647C55.9337 243.798 55.1322 243.178 54.1921 242.924L45.9201 240.69C44.98 240.437 43.9784 240.57 43.1356 241.06C42.2928 241.551 41.6778 242.358 41.4258 243.306L38.2596 255.215H38.2773C37.2619 255.285 36.2518 255.419 35.253 255.616L35.2665 255.608L29.15 244.931C28.9092 244.51 28.5884 244.141 28.2061 243.846C27.8237 243.55 27.3873 243.333 26.9218 243.207C26.4562 243.081 25.9706 243.049 25.4927 243.113C25.0148 243.176 24.554 243.334 24.1366 243.577L16.7205 247.894C16.303 248.137 15.9371 248.46 15.6435 248.845C15.35 249.231 15.1347 249.67 15.0099 250.14C14.8851 250.609 14.8532 251.098 14.9161 251.58C14.979 252.061 15.1354 252.526 15.3764 252.946L21.4929 263.624L21.5063 263.616C20.8371 264.39 20.2164 265.206 19.6481 266.058L19.6532 266.041L7.83608 262.849C6.89588 262.596 5.89421 262.729 5.05138 263.219C4.20855 263.71 3.59359 264.518 3.34177 265.465L1.12486 273.801C0.873157 274.749 1.00521 275.759 1.49199 276.608C1.97877 277.458 2.78041 278.078 3.72064 278.332L15.5369 281.523L15.5444 281.494C15.614 282.527 15.7484 283.554 15.9468 284.57L15.9317 284.542L5.33691 290.707C4.494 291.197 3.87891 292.005 3.62686 292.953C3.37481 293.9 3.50645 294.91 3.99282 295.759L8.27711 303.234C8.51796 303.654 8.83871 304.023 9.22104 304.319C9.60338 304.615 10.0398 304.832 10.5054 304.958C10.971 305.083 11.4566 305.116 11.9345 305.052C12.4123 304.989 12.8732 304.831 13.2906 304.588L23.8845 298.424L23.861 298.383C24.6442 299.072 25.4703 299.71 26.3341 300.292L26.2829 300.279L23.1167 312.187C22.8648 313.135 22.9966 314.145 23.4832 314.994C23.9699 315.844 24.7715 316.464 25.7117 316.718L33.9837 318.951C34.9238 319.205 35.9254 319.072 36.7682 318.581C37.611 318.091 38.226 317.283 38.478 316.336L41.6442 304.426L41.582 304.41C42.6276 304.34 43.6675 304.203 44.6953 303.997L44.6407 304.029L50.758 314.706C50.9988 315.127 51.3196 315.496 51.7019 315.792C52.0843 316.088 52.5207 316.305 52.9863 316.43C53.4518 316.556 53.9374 316.588 54.4153 316.525C54.8932 316.461 55.354 316.304 55.7715 316.061L63.1875 311.743C64.0303 311.253 64.6454 310.445 64.8975 309.498C65.1495 308.55 65.0179 307.541 64.5316 306.691L58.4151 296.013L58.3605 296.045C59.0507 295.25 59.6891 294.411 60.2716 293.534L60.2548 293.596L72.0711 296.788C72.5367 296.914 73.0223 296.946 73.5002 296.882C73.9781 296.819 74.4389 296.661 74.8563 296.418C75.2737 296.175 75.6396 295.852 75.933 295.467C76.2264 295.081 76.4416 294.641 76.5662 294.172L78.7823 285.836C78.9072 285.367 78.9391 284.878 78.8763 284.396C78.8134 283.914 78.6571 283.45 78.4161 283.029C78.1751 282.608 77.8543 282.24 77.4718 281.944C77.0894 281.648 76.653 281.431 76.1874 281.306L64.3636 278.119L64.3493 278.171C64.2808 277.125 64.1458 276.086 63.9452 275.058L63.9687 275.099L74.5635 268.935C75.4064 268.444 76.0215 267.636 76.2736 266.689C76.5256 265.741 76.394 264.732 75.9076 263.882L71.6233 256.408C71.1368 255.559 70.3358 254.94 69.3964 254.686C68.457 254.432 67.456 254.564 66.6132 255.053Z" fill="white"/>
</g>
<path opacity="0.39" d="M144.626 122.073C168.542 122.073 187.929 102.533 187.929 78.4305C187.929 54.3276 168.542 34.7883 144.626 34.7883C120.71 34.7883 101.323 54.3276 101.323 78.4305C101.323 102.533 120.71 122.073 144.626 122.073Z" fill="white"/>
<path d="M144.031 78.9053L167.424 65.2051L167.352 90.8352L143.959 104.536L144.031 78.9053Z" stroke="#1E223B" stroke-width="2" stroke-linecap="round" stroke-linejoin="round"/>
<path d="M121.899 66.0281L145.292 52.327L167.424 65.2051L144.031 78.9053L121.899 66.0281Z" stroke="#1E223B" stroke-width="2" stroke-linecap="round" stroke-linejoin="round"/>
<path d="M121.899 66.0281L145.292 52.327L167.424 65.2051L144.031 78.9053L121.899 66.0281Z" fill="#028B9E" stroke="#1E223B" stroke-width="2" stroke-linecap="round" stroke-linejoin="round"/>
<path opacity="0.4" d="M144.031 78.905L143.959 104.536L121.827 91.6578L121.899 66.0277L144.031 78.905Z" fill="#028B9E" stroke="#1E223B" stroke-width="2" stroke-linecap="round" stroke-linejoin="round"/>
<path d="M144.031 78.905L143.959 104.536L121.827 91.6578L121.899 66.0277L144.031 78.905Z" stroke="#1E223B" stroke-width="2" stroke-linecap="round" stroke-linejoin="round"/>
<path d="M144.626 122.073C168.542 122.073 187.929 102.533 187.929 78.4305C187.929 54.3276 168.542 34.7883 144.626 34.7883C120.71 34.7883 101.323 54.3276 101.323 78.4305C101.323 102.533 120.71 122.073 144.626 122.073Z" stroke="#1E223B" stroke-width="2" stroke-linecap="round" stroke-linejoin="round"/>
<g style="mix-blend-mode:multiply" opacity="0.11">
<path d="M446.002 417.828H209.106C200.754 417.828 193.984 424.651 193.984 433.067V604.087C193.984 612.503 200.754 619.326 209.106 619.326H446.002C454.353 619.326 461.123 612.503 461.123 604.087V433.067C461.123 424.651 454.353 417.828 446.002 417.828Z" fill="#161616"/>
<path d="M446.002 417.828H209.106C200.754 417.828 193.984 424.651 193.984 433.067V604.087C193.984 612.503 200.754 619.326 209.106 619.326H446.002C454.353 619.326 461.123 612.503 461.123 604.087V433.067C461.123 424.651 454.353 417.828 446.002 417.828Z" stroke="#1E223B" stroke-miterlimit="10"/>
</g>
<g style="mix-blend-mode:multiply" opacity="0.11">
<path d="M455.242 405.975H199.865C196.617 405.975 193.984 408.628 193.984 411.901C193.984 415.174 196.617 417.828 199.865 417.828H455.242C458.49 417.828 461.123 415.174 461.123 411.901C461.123 408.628 458.49 405.975 455.242 405.975Z" fill="#161616"/>
<path d="M455.242 405.975H199.865C196.617 405.975 193.984 408.628 193.984 411.901C193.984 415.174 196.617 417.828 199.865 417.828H455.242C458.49 417.828 461.123 415.174 461.123 411.901C461.123 408.628 458.49 405.975 455.242 405.975Z" stroke="#1E223B" stroke-miterlimit="10"/>
</g>
<path d="M437.601 411.055H200.705C192.354 411.055 185.584 417.878 185.584 426.294V597.314C185.584 605.73 192.354 612.553 200.705 612.553H437.601C445.952 612.553 452.722 605.73 452.722 597.314V426.294C452.722 417.878 445.952 411.055 437.601 411.055Z" fill="#2F4584"/>
<path d="M437.601 411.055H200.705C192.354 411.055 185.584 417.878 185.584 426.294V592.234C185.584 600.65 192.354 607.473 200.705 607.473H437.601C445.952 607.473 452.722 600.65 452.722 592.234V426.294C452.722 417.878 445.952 411.055 437.601 411.055Z" fill="white"/>
<g style="mix-blend-mode:multiply" opacity="0.11">
<path d="M359.056 595.476H357.796C356.459 595.476 355.177 596.011 354.232 596.963C353.286 597.916 352.755 599.208 352.755 600.555V606.627C352.755 607.301 352.49 607.947 352.017 608.423C351.545 608.9 350.904 609.167 350.235 609.167C349.567 609.167 348.926 608.9 348.453 608.423C347.981 607.947 347.715 607.301 347.715 606.627V600.555C347.715 599.208 347.184 597.916 346.239 596.963C345.293 596.011 344.011 595.476 342.675 595.476H341.415C340.078 595.476 338.796 596.011 337.851 596.963C336.905 597.916 336.374 599.208 336.374 600.555V606.627C336.374 607.301 336.109 607.947 335.636 608.423C335.163 608.9 334.522 609.167 333.854 609.167C333.186 609.167 332.545 608.9 332.072 608.423C331.599 607.947 331.334 607.301 331.334 606.627V600.555C331.334 599.208 330.803 597.916 329.858 596.963C328.912 596.011 327.63 595.476 326.294 595.476H325.033C323.697 595.476 322.415 596.011 321.469 596.963C320.524 597.916 319.993 599.208 319.993 600.555V606.627C319.993 607.301 319.728 607.947 319.255 608.423C318.782 608.9 318.141 609.167 317.473 609.167C316.805 609.167 316.164 608.9 315.691 608.423C315.218 607.947 314.953 607.301 314.953 606.627V568.529C314.953 567.182 314.422 565.89 313.476 564.937C312.531 563.984 311.249 563.449 309.912 563.449H308.652C307.316 563.449 306.034 563.984 305.088 564.937C304.143 565.89 303.612 567.182 303.612 568.529V634.933L293.945 618.057C293.614 617.479 293.173 616.971 292.648 616.565C292.123 616.158 291.523 615.86 290.883 615.687C290.244 615.514 289.576 615.47 288.92 615.557C288.263 615.644 287.63 615.86 287.056 616.194L285.964 616.829C285.39 617.163 284.887 617.607 284.483 618.136C284.08 618.665 283.784 619.27 283.612 619.914C283.441 620.559 283.397 621.232 283.483 621.894C283.57 622.555 283.785 623.194 284.116 623.772L304.314 659.03C305.056 660.926 306.346 662.553 308.017 663.701C309.689 664.848 311.664 665.463 313.686 665.464H315.366V686.336H312.049V707.388H310.425C308.98 707.388 307.594 707.967 306.572 708.997C305.55 710.027 304.976 711.423 304.976 712.88V738.5H362.736V712.88C362.736 711.423 362.162 710.027 361.14 708.997C360.118 707.967 358.733 707.388 357.287 707.388H355.655V686.336H352.335V665.464H354.015C356.689 665.464 359.253 664.394 361.144 662.488C363.034 660.583 364.096 657.999 364.096 655.304V600.555C364.096 599.208 363.565 597.916 362.62 596.963C361.675 596.011 360.393 595.476 359.056 595.476Z" fill="#161616"/>
<path d="M359.056 595.476H357.796C356.459 595.476 355.177 596.011 354.232 596.963C353.286 597.916 352.755 599.208 352.755 600.555V606.627C352.755 607.301 352.49 607.947 352.017 608.423C351.545 608.9 350.904 609.167 350.235 609.167C349.567 609.167 348.926 608.9 348.453 608.423C347.981 607.947 347.715 607.301 347.715 606.627V600.555C347.715 599.208 347.184 597.916 346.239 596.963C345.293 596.011 344.011 595.476 342.675 595.476H341.415C340.078 595.476 338.796 596.011 337.851 596.963C336.905 597.916 336.374 599.208 336.374 600.555V606.627C336.374 607.301 336.109 607.947 335.636 608.423C335.163 608.9 334.522 609.167 333.854 609.167C333.186 609.167 332.545 608.9 332.072 608.423C331.599 607.947 331.334 607.301 331.334 606.627V600.555C331.334 599.208 330.803 597.916 329.858 596.963C328.912 596.011 327.63 595.476 326.294 595.476H325.033C323.697 595.476 322.415 596.011 321.469 596.963C320.524 597.916 319.993 599.208 319.993 600.555V606.627C319.993 607.301 319.728 607.947 319.255 608.423C318.782 608.9 318.141 609.167 317.473 609.167C316.805 609.167 316.164 608.9 315.691 608.423C315.218 607.947 314.953 607.301 314.953 606.627V568.529C314.953 567.182 314.422 565.89 313.476 564.937C312.531 563.984 311.249 563.449 309.912 563.449H308.652C307.316 563.449 306.034 563.984 305.088 564.937C304.143 565.89 303.612 567.182 303.612 568.529V634.933L293.945 618.057C293.614 617.479 293.173 616.971 292.648 616.565C292.123 616.158 291.523 615.86 290.883 615.687C290.244 615.514 289.576 615.47 288.92 615.557C288.263 615.644 287.63 615.86 287.056 616.194L285.964 616.829C285.39 617.163 284.887 617.607 284.483 618.136C284.08 618.665 283.784 619.27 283.612 619.914C283.441 620.559 283.397 621.232 283.483 621.894C283.57 622.555 283.785 623.194 284.116 623.772L304.314 659.03C305.056 660.926 306.346 662.553 308.017 663.701C309.689 664.848 311.664 665.463 313.686 665.464H315.366V686.336H312.049V707.388H310.425C308.98 707.388 307.594 707.967 306.572 708.997C305.55 710.027 304.976 711.423 304.976 712.88V738.5H362.736V712.88C362.736 711.423 362.162 710.027 361.14 708.997C360.118 707.967 358.733 707.388 357.287 707.388H355.655V686.336H352.335V665.464H354.015C356.689 665.464 359.253 664.394 361.144 662.488C363.034 660.583 364.096 657.999 364.096 655.304V600.555C364.096 599.208 363.565 597.916 362.62 596.963C361.675 596.011 360.393 595.476 359.056 595.476Z" stroke="#1E223B" stroke-miterlimit="10"/>
</g>
<g style="mix-blend-mode:multiply" opacity="0.11">
<path d="M262.503 592.233C265.02 592.232 267.446 591.282 269.303 589.57C271.16 587.857 272.315 585.507 272.539 582.98L291.122 550.541C291.453 549.963 291.668 549.325 291.755 548.663C291.841 548.001 291.797 547.329 291.626 546.684C291.454 546.039 291.158 545.435 290.755 544.905C290.351 544.376 289.848 543.932 289.274 543.599L288.182 542.964C287.608 542.63 286.975 542.413 286.318 542.326C285.662 542.239 284.994 542.283 284.355 542.456C283.715 542.629 283.115 542.927 282.59 543.334C282.065 543.741 281.624 544.248 281.293 544.826L272.578 560.041V495.298C272.578 493.95 272.047 492.658 271.102 491.706C270.156 490.753 268.874 490.218 267.537 490.218H266.277C264.941 490.218 263.659 490.753 262.713 491.706C261.768 492.658 261.237 493.95 261.237 495.298V533.396C261.237 534.07 260.971 534.716 260.499 535.192C260.026 535.668 259.385 535.936 258.717 535.936C258.048 535.936 257.407 535.668 256.935 535.192C256.462 534.716 256.197 534.07 256.197 533.396V487.937C256.197 486.59 255.666 485.298 254.72 484.345C253.775 483.392 252.493 482.857 251.156 482.857H249.896C248.559 482.857 247.277 483.392 246.332 484.345C245.387 485.298 244.856 486.59 244.856 487.937V533.397C244.856 534.07 244.59 534.716 244.118 535.193C243.645 535.669 243.004 535.937 242.336 535.937C241.667 535.937 241.026 535.669 240.554 535.193C240.081 534.716 239.816 534.07 239.816 533.397V495.298C239.816 493.951 239.285 492.659 238.339 491.706C237.394 490.754 236.112 490.219 234.775 490.219H233.515C232.178 490.219 230.896 490.754 229.951 491.706C229.006 492.659 228.475 493.951 228.475 495.298V533.397C228.475 534.07 228.209 534.716 227.737 535.193C227.264 535.669 226.623 535.937 225.955 535.937C225.286 535.937 224.645 535.669 224.173 535.193C223.7 534.716 223.434 534.07 223.434 533.397V507.363C223.434 506.016 222.903 504.724 221.958 503.771C221.013 502.818 219.731 502.283 218.394 502.283H217.134C215.797 502.283 214.515 502.818 213.57 503.771C212.625 504.724 212.094 506.016 212.094 507.363V582.074C212.094 584.768 213.156 587.353 215.046 589.258C216.937 591.163 219.501 592.233 222.174 592.233H224.342V613.105H220.537V634.157H218.905C217.46 634.157 216.073 634.736 215.051 635.766C214.029 636.795 213.455 638.192 213.455 639.649V738.5H271.216V639.649C271.216 638.192 270.642 636.795 269.62 635.766C268.598 634.736 267.212 634.157 265.767 634.157H264.134V613.105H261.304V592.233H262.503Z" fill="#161616"/>
<path d="M262.503 592.233C265.02 592.232 267.446 591.282 269.303 589.57C271.16 587.857 272.315 585.507 272.539 582.98L291.122 550.541C291.453 549.963 291.668 549.325 291.755 548.663C291.841 548.001 291.797 547.329 291.626 546.684C291.454 546.039 291.158 545.435 290.755 544.905C290.351 544.376 289.848 543.932 289.274 543.599L288.182 542.964C287.608 542.63 286.975 542.413 286.318 542.326C285.662 542.239 284.994 542.283 284.355 542.456C283.715 542.629 283.115 542.927 282.59 543.334C282.065 543.741 281.624 544.248 281.293 544.826L272.578 560.041V495.298C272.578 493.95 272.047 492.658 271.102 491.706C270.156 490.753 268.874 490.218 267.537 490.218H266.277C264.941 490.218 263.659 490.753 262.713 491.706C261.768 492.658 261.237 493.95 261.237 495.298V533.396C261.237 534.07 260.971 534.716 260.499 535.192C260.026 535.668 259.385 535.936 258.717 535.936C258.048 535.936 257.407 535.668 256.935 535.192C256.462 534.716 256.197 534.07 256.197 533.396V487.937C256.197 486.59 255.666 485.298 254.72 484.345C253.775 483.392 252.493 482.857 251.156 482.857H249.896C248.559 482.857 247.277 483.392 246.332 484.345C245.387 485.298 244.856 486.59 244.856 487.937V533.397C244.856 534.07 244.59 534.716 244.118 535.193C243.645 535.669 243.004 535.937 242.336 535.937C241.667 535.937 241.026 535.669 240.554 535.193C240.081 534.716 239.816 534.07 239.816 533.397V495.298C239.816 493.951 239.285 492.659 238.339 491.706C237.394 490.754 236.112 490.219 234.775 490.219H233.515C232.178 490.219 230.896 490.754 229.951 491.706C229.006 492.659 228.475 493.951 228.475 495.298V533.397C228.475 534.07 228.209 534.716 227.737 535.193C227.264 535.669 226.623 535.937 225.955 535.937C225.286 535.937 224.645 535.669 224.173 535.193C223.7 534.716 223.434 534.07 223.434 533.397V507.363C223.434 506.016 222.903 504.724 221.958 503.771C221.013 502.818 219.731 502.283 218.394 502.283H217.134C215.797 502.283 214.515 502.818 213.57 503.771C212.625 504.724 212.094 506.016 212.094 507.363V582.074C212.094 584.768 213.156 587.353 215.046 589.258C216.937 591.163 219.501 592.233 222.174 592.233H224.342V613.105H220.537V634.157H218.905C217.46 634.157 216.073 634.736 215.051 635.766C214.029 636.795 213.455 638.192 213.455 639.649V738.5H271.216V639.649C271.216 638.192 270.642 636.795 269.62 635.766C268.598 634.736 267.212 634.157 265.767 634.157H264.134V613.105H261.304V592.233H262.503Z" stroke="#1E223B" stroke-miterlimit="10"/>
</g>
<path opacity="0.15" d="M437.181 425.871H201.125C199.269 425.871 197.765 427.387 197.765 429.257V524.927C197.765 526.797 199.269 528.313 201.125 528.313H437.181C439.037 528.313 440.541 526.797 440.541 524.927V429.257C440.541 427.387 439.037 425.871 437.181 425.871Z" fill="#1E223B" stroke="#1E223B" stroke-width="2" stroke-miterlimit="11"/>
<path d="M437.601 411.055H200.705C192.354 411.055 185.584 417.878 185.584 426.294V592.234C185.584 600.65 192.354 607.473 200.705 607.473H437.601C445.952 607.473 452.722 600.65 452.722 592.234V426.294C452.722 417.878 445.952 411.055 437.601 411.055Z" stroke="#1E223B" stroke-width="2" stroke-linecap="round" stroke-linejoin="round"/>
<path d="M437.601 411.055H200.705C192.354 411.055 185.584 417.878 185.584 426.294V597.314C185.584 605.73 192.354 612.553 200.705 612.553H437.601C445.952 612.553 452.722 605.73 452.722 597.314V426.294C452.722 417.878 445.952 411.055 437.601 411.055Z" stroke="#1E223B" stroke-width="2" stroke-linecap="round" stroke-linejoin="round"/>
<path d="M437.601 214.636H200.705C192.354 214.636 185.584 221.459 185.584 229.876V395.815C185.584 404.232 192.354 411.055 200.705 411.055H437.601C445.952 411.055 452.722 404.232 452.722 395.815V229.876C452.722 221.459 445.952 214.636 437.601 214.636Z" fill="#2F4584"/>
<path d="M437.601 214.636H200.705C192.354 214.636 185.584 221.459 185.584 229.876V395.815C185.584 404.232 192.354 411.055 200.705 411.055H437.601C445.952 411.055 452.722 404.232 452.722 395.815V229.876C452.722 221.459 445.952 214.636 437.601 214.636Z" stroke="#1E223B" stroke-width="2" stroke-linecap="round" stroke-linejoin="round"/>
<path d="M447.683 395.815V229.876C447.683 224.265 443.169 219.716 437.602 219.716L200.706 219.716C195.138 219.716 190.625 224.265 190.625 229.876V395.815C190.625 401.426 195.138 405.975 200.706 405.975H437.602C443.169 405.975 447.683 401.426 447.683 395.815Z" fill="white"/>
<path d="M427.521 385.656V240.035H210.786V385.656H427.521Z" fill="#FF5855" stroke="#1E223B" stroke-miterlimit="10"/>
<path d="M447.683 395.815V229.876C447.683 224.265 443.169 219.716 437.602 219.716L200.706 219.716C195.138 219.716 190.625 224.265 190.625 229.876V395.815C190.625 401.426 195.138 405.975 200.706 405.975H437.602C443.169 405.975 447.683 401.426 447.683 395.815Z" stroke="#1E223B" stroke-width="2" stroke-linecap="round" stroke-linejoin="round"/>
<path d="M427.521 385.656V240.035H210.786V385.656H427.521Z" stroke="#1E223B" stroke-width="2" stroke-linecap="round" stroke-linejoin="round"/>
<g opacity="0.1">
<path opacity="0.1" d="M351.705 536.356H286.601C284.629 536.356 283.031 537.967 283.031 539.954V583.556C283.031 585.543 284.629 587.154 286.601 587.154H351.705C353.677 587.154 355.276 585.543 355.276 583.556V539.954C355.276 537.967 353.677 536.356 351.705 536.356Z" fill="#1E223B"/>
</g>
<path d="M351.705 536.356H286.601C284.629 536.356 283.031 537.967 283.031 539.954V583.556C283.031 585.543 284.629 587.154 286.601 587.154H351.705C353.677 587.154 355.276 585.543 355.276 583.556V539.954C355.276 537.967 353.677 536.356 351.705 536.356Z" stroke="#1E223B" stroke-width="2" stroke-linecap="round" stroke-linejoin="round"/>
<path d="M351.495 605.78H287.651V612.553H351.495V605.78Z" fill="#263C72"/>
<path d="M351.495 605.78H287.651V612.553H351.495V605.78Z" stroke="#1E223B" stroke-width="2" stroke-linecap="round" stroke-linejoin="round"/>
<g style="mix-blend-mode:multiply" opacity="0.11">
<path d="M403.999 194.317H246.068C243.284 194.317 241.028 196.591 241.028 199.397V378.883C241.028 381.688 243.284 383.963 246.068 383.963H403.999C406.783 383.963 409.039 381.688 409.039 378.883V199.397C409.039 196.591 406.783 194.317 403.999 194.317Z" fill="#161616"/>
<path d="M403.999 194.317H246.068C243.284 194.317 241.028 196.591 241.028 199.397V378.883C241.028 381.688 243.284 383.963 246.068 383.963H403.999C406.783 383.963 409.039 381.688 409.039 378.883V199.397C409.039 196.591 406.783 194.317 403.999 194.317Z" stroke="#1E223B" stroke-miterlimit="10"/>
</g>
<path d="M399.379 190.931H241.448C238.664 190.931 236.407 193.205 236.407 196.01V375.496C236.407 378.302 238.664 380.576 241.448 380.576H399.379C402.162 380.576 404.419 378.302 404.419 375.496V196.01C404.419 193.205 402.162 190.931 399.379 190.931Z" fill="white"/>
<path d="M236.407 351.791H404.419V375.496C404.419 376.843 403.888 378.135 402.943 379.088C401.997 380.041 400.715 380.576 399.379 380.576H241.448C240.111 380.576 238.829 380.041 237.884 379.088C236.938 378.135 236.407 376.843 236.407 375.496V351.791Z" fill="#EFEFEF"/>
<path d="M399.379 190.931H241.448C238.664 190.931 236.407 193.205 236.407 196.01V375.496C236.407 378.302 238.664 380.576 241.448 380.576H399.379C402.162 380.576 404.419 378.302 404.419 375.496V196.01C404.419 193.205 402.162 190.931 399.379 190.931Z" stroke="#1E223B" stroke-width="2" stroke-linecap="round" stroke-linejoin="round"/>
<path d="M240.966 190.931H399.86C400.459 190.931 401.052 191.049 401.605 191.28C402.158 191.511 402.661 191.85 403.084 192.277C403.507 192.703 403.843 193.21 404.072 193.768C404.301 194.325 404.419 194.923 404.419 195.526V206.171H236.407V195.526C236.407 194.923 236.525 194.325 236.754 193.768C236.983 193.21 237.319 192.703 237.742 192.277C238.166 191.85 238.668 191.511 239.222 191.28C239.775 191.049 240.368 190.931 240.966 190.931Z" fill="#363D56"/>
<path d="M240.966 190.931H399.86C400.459 190.931 401.052 191.049 401.605 191.28C402.158 191.511 402.661 191.85 403.084 192.277C403.507 192.703 403.843 193.21 404.072 193.768C404.301 194.325 404.419 194.923 404.419 195.526V206.171H236.407V195.526C236.407 194.923 236.525 194.325 236.754 193.768C236.983 193.21 237.319 192.703 237.742 192.277C238.166 191.85 238.668 191.511 239.222 191.28C239.775 191.049 240.368 190.931 240.966 190.931V190.931Z" stroke="#1E223B" stroke-width="2" stroke-linecap="round" stroke-linejoin="round"/>
<path d="M404.419 206.17H236.407V212.943H404.419V206.17Z" fill="#424960"/>
<path d="M404.419 206.17H236.407V212.943H404.419V206.17Z" stroke="#1E223B" stroke-width="2" stroke-linecap="round" stroke-linejoin="round"/>
<path d="M245.788 201.09C247.18 201.09 248.308 199.953 248.308 198.55C248.308 197.148 247.18 196.01 245.788 196.01C244.396 196.01 243.268 197.148 243.268 198.55C243.268 199.953 244.396 201.09 245.788 201.09Z" fill="#F73E39"/>
<path d="M245.788 201.09C247.18 201.09 248.308 199.953 248.308 198.55C248.308 197.148 247.18 196.01 245.788 196.01C244.396 196.01 243.268 197.148 243.268 198.55C243.268 199.953 244.396 201.09 245.788 201.09Z" stroke="#1E223B" stroke-width="2" stroke-linecap="round" stroke-linejoin="round"/>
<path d="M256.094 201.09C257.486 201.09 258.614 199.953 258.614 198.55C258.614 197.148 257.486 196.01 256.094 196.01C254.702 196.01 253.574 197.148 253.574 198.55C253.574 199.953 254.702 201.09 256.094 201.09Z" fill="#383838"/>
<path d="M256.094 201.09C257.486 201.09 258.614 199.953 258.614 198.55C258.614 197.148 257.486 196.01 256.094 196.01C254.702 196.01 253.574 197.148 253.574 198.55C253.574 199.953 254.702 201.09 256.094 201.09Z" stroke="#1E223B" stroke-width="2" stroke-linecap="round" stroke-linejoin="round"/>
<path d="M265.525 201.09C266.917 201.09 268.046 199.953 268.046 198.55C268.046 197.148 266.917 196.01 265.525 196.01C264.134 196.01 263.005 197.148 263.005 198.55C263.005 199.953 264.134 201.09 265.525 201.09Z" fill="#C6C6C6"/>
<path d="M265.525 201.09C266.917 201.09 268.046 199.953 268.046 198.55C268.046 197.148 266.917 196.01 265.525 196.01C264.134 196.01 263.005 197.148 263.005 198.55C263.005 199.953 264.134 201.09 265.525 201.09Z" stroke="#1E223B" stroke-width="2" stroke-linecap="round" stroke-linejoin="round"/>
<path opacity="0.28" d="M331.754 196.01H279.67C278.279 196.01 277.15 197.148 277.15 198.55C277.15 199.953 278.279 201.09 279.67 201.09H331.754C333.146 201.09 334.274 199.953 334.274 198.55C334.274 197.148 333.146 196.01 331.754 196.01Z" fill="#8289A3"/>
<path d="M39.9456 297.077C49.4046 297.077 57.0727 289.349 57.0727 279.816C57.0727 270.283 49.4046 262.554 39.9456 262.554C30.4865 262.554 22.8185 270.283 22.8185 279.816C22.8185 289.349 30.4865 297.077 39.9456 297.077Z" stroke="#1E223B" stroke-width="2" stroke-linecap="round" stroke-linejoin="round"/>
<path d="M39.9456 287.214C43.9996 287.214 47.2861 283.902 47.2861 279.816C47.2861 275.73 43.9996 272.418 39.9456 272.418C35.8916 272.418 32.6052 275.73 32.6052 279.816C32.6052 283.902 35.8916 287.214 39.9456 287.214Z" stroke="#1E223B" stroke-width="2" stroke-linecap="round" stroke-linejoin="round"/>
<path d="M66.6132 255.053L56.0184 261.218L56.0344 261.246C55.2606 260.565 54.445 259.933 53.5923 259.356L53.6209 259.364L56.7871 247.454C57.0388 246.506 56.9069 245.497 56.4203 244.647C55.9337 243.798 55.1322 243.178 54.1921 242.924L45.9201 240.69C44.98 240.437 43.9784 240.57 43.1356 241.06C42.2928 241.55 41.6778 242.358 41.4258 243.305L38.2596 255.215H38.2773C37.2619 255.285 36.2518 255.419 35.253 255.616L35.2665 255.608L29.15 244.931C28.9092 244.51 28.5884 244.141 28.2061 243.846C27.8237 243.55 27.3873 243.333 26.9218 243.207C26.4562 243.081 25.9706 243.049 25.4927 243.112C25.0148 243.176 24.554 243.333 24.1366 243.576L16.7205 247.894C16.303 248.137 15.9371 248.46 15.6435 248.845C15.35 249.231 15.1347 249.67 15.0099 250.139C14.8851 250.609 14.8532 251.098 14.9161 251.579C14.979 252.061 15.1354 252.525 15.3764 252.946L21.4929 263.624L21.5063 263.616C20.8371 264.39 20.2164 265.206 19.6481 266.058L19.6532 266.041L7.83608 262.849C6.89588 262.595 5.89421 262.729 5.05138 263.219C4.20855 263.71 3.59359 264.518 3.34177 265.465L1.12486 273.801C0.873157 274.749 1.00521 275.758 1.49199 276.608C1.97877 277.458 2.78041 278.077 3.72064 278.331L15.5369 281.522L15.5444 281.494C15.614 282.526 15.7484 283.554 15.9468 284.569L15.9317 284.542L5.33691 290.707C4.494 291.197 3.87891 292.005 3.62686 292.953C3.37481 293.9 3.50645 294.91 3.99282 295.759L8.27711 303.233C8.51796 303.654 8.83871 304.023 9.22104 304.319C9.60338 304.615 10.0398 304.832 10.5054 304.958C10.971 305.083 11.4566 305.115 11.9345 305.052C12.4123 304.989 12.8732 304.831 13.2906 304.588L23.8845 298.424L23.861 298.383C24.6442 299.072 25.4703 299.71 26.3341 300.292L26.2829 300.279L23.1167 312.187C22.8648 313.135 22.9966 314.145 23.4832 314.994C23.9699 315.844 24.7715 316.464 25.7117 316.718L33.9837 318.951C34.9238 319.205 35.9254 319.072 36.7682 318.581C37.611 318.091 38.226 317.283 38.478 316.336L41.6442 304.426L41.582 304.409C42.6276 304.34 43.6675 304.203 44.6953 303.997L44.6407 304.029L50.758 314.706C50.9988 315.127 51.3196 315.496 51.7019 315.792C52.0843 316.087 52.5207 316.304 52.9863 316.43C53.4518 316.556 53.9374 316.588 54.4153 316.525C54.8932 316.461 55.354 316.304 55.7714 316.061L63.1875 311.743C64.0303 311.252 64.6454 310.445 64.8975 309.497C65.1495 308.55 65.0179 307.541 64.5316 306.691L58.4151 296.013L58.3605 296.045C59.0507 295.25 59.6891 294.411 60.2716 293.534L60.2548 293.596L72.0711 296.788C72.5367 296.914 73.0223 296.946 73.5002 296.882C73.9781 296.819 74.4389 296.661 74.8563 296.418C75.2737 296.175 75.6396 295.852 75.933 295.467C76.2264 295.081 76.4415 294.641 76.5662 294.172L78.7823 285.836C78.9072 285.367 78.9391 284.877 78.8763 284.396C78.8134 283.914 78.6571 283.45 78.4161 283.029C78.1751 282.608 77.8543 282.24 77.4718 281.944C77.0894 281.648 76.653 281.431 76.1874 281.306L64.3636 278.119L64.3493 278.171C64.2808 277.125 64.1458 276.085 63.9452 275.058L63.9687 275.099L74.5635 268.935C75.4064 268.444 76.0215 267.636 76.2736 266.689C76.5256 265.741 76.394 264.732 75.9076 263.882L71.6233 256.408C71.1368 255.559 70.3358 254.94 69.3964 254.686C68.457 254.432 67.456 254.564 66.6132 255.053Z" stroke="#1E223B" stroke-width="2" stroke-linecap="round" stroke-linejoin="round"/>
<g opacity="0.32">
<path opacity="0.32" d="M269.961 247.888C273.543 247.888 276.446 244.962 276.446 241.352C276.446 237.742 273.543 234.816 269.961 234.816C266.379 234.816 263.476 237.742 263.476 241.352C263.476 244.962 266.379 247.888 269.961 247.888Z" stroke="#1E223B" stroke-linecap="round" stroke-linejoin="round"/>
<path opacity="0.32" d="M269.961 244.154C271.496 244.154 272.741 242.899 272.741 241.352C272.741 239.805 271.496 238.551 269.961 238.551C268.426 238.551 267.181 239.805 267.181 241.352C267.181 242.899 268.426 244.154 269.961 244.154Z" stroke="#1E223B" stroke-linecap="round" stroke-linejoin="round"/>
<path opacity="0.32" d="M283.681 241.917L279.206 240.709V240.721C279.18 240.33 279.13 239.941 279.055 239.556L279.06 239.566L283.072 237.231C283.39 237.045 283.622 236.739 283.717 236.38C283.811 236.021 283.76 235.639 283.576 235.318L281.954 232.489C281.863 232.329 281.742 232.189 281.597 232.077C281.452 231.965 281.287 231.883 281.111 231.836C280.935 231.788 280.751 231.776 280.57 231.8C280.389 231.824 280.215 231.883 280.057 231.975L276.045 234.31V234.316C275.754 234.06 275.448 233.823 275.127 233.606H275.133L276.332 229.096C276.427 228.737 276.378 228.355 276.193 228.033C276.009 227.712 275.706 227.477 275.35 227.381L272.217 226.534C271.861 226.438 271.482 226.489 271.163 226.674C270.844 226.86 270.611 227.166 270.515 227.525L269.317 232.034H269.322C268.937 232.061 268.554 232.112 268.176 232.186H268.182L265.866 228.144C265.681 227.822 265.378 227.587 265.022 227.491C264.666 227.395 264.286 227.445 263.967 227.631L261.159 229.265C260.84 229.45 260.607 229.756 260.512 230.115C260.416 230.474 260.466 230.856 260.651 231.178L262.967 235.221L262.976 235.216C262.72 235.511 262.484 235.822 262.267 236.147V236.135L257.793 234.927C257.616 234.879 257.433 234.867 257.252 234.891C257.071 234.915 256.896 234.975 256.738 235.067C256.58 235.159 256.442 235.281 256.33 235.427C256.219 235.573 256.138 235.74 256.091 235.917L255.251 239.074C255.155 239.433 255.205 239.815 255.389 240.137C255.574 240.459 255.877 240.693 256.234 240.79L260.708 241.998L260.713 241.98C260.739 242.376 260.791 242.77 260.867 243.159L260.857 243.142L256.845 245.476C256.687 245.568 256.549 245.69 256.437 245.836C256.326 245.982 256.245 246.149 256.198 246.326C256.15 246.504 256.138 246.689 256.162 246.872C256.186 247.054 256.246 247.23 256.337 247.389L257.958 250.219C258.049 250.378 258.171 250.518 258.316 250.63C258.46 250.742 258.626 250.824 258.802 250.872C258.978 250.919 259.162 250.931 259.343 250.907C259.524 250.883 259.699 250.824 259.857 250.732L263.868 248.398L263.856 248.376C264.154 248.64 264.469 248.883 264.799 249.105L264.776 249.099L263.577 253.609C263.53 253.787 263.518 253.972 263.542 254.155C263.566 254.337 263.625 254.513 263.716 254.672C263.807 254.832 263.929 254.971 264.074 255.083C264.219 255.195 264.384 255.277 264.56 255.325L267.692 256.171C268.048 256.267 268.427 256.217 268.746 256.031C269.065 255.845 269.298 255.54 269.394 255.181L270.598 250.671L270.575 250.665C270.97 250.638 271.363 250.586 271.751 250.508L271.73 250.521L274.046 254.564C274.23 254.885 274.534 255.12 274.89 255.216C275.246 255.312 275.625 255.262 275.945 255.077L278.753 253.443C279.072 253.257 279.305 252.951 279.4 252.592C279.495 252.233 279.445 251.851 279.261 251.529L276.945 247.486L276.928 247.496C277.187 247.198 277.427 246.883 277.647 246.554V246.571L282.121 247.78C282.477 247.875 282.856 247.825 283.175 247.639C283.494 247.454 283.727 247.148 283.823 246.789L284.663 243.632C284.758 243.273 284.708 242.891 284.524 242.57C284.34 242.248 284.036 242.014 283.681 241.917V241.917Z" stroke="#1E223B" stroke-linecap="round" stroke-linejoin="round"/>
</g>
<g opacity="0.49">
<path opacity="0.49" d="M589.375 118.957C598.235 118.957 605.417 111.719 605.417 102.79C605.417 93.8608 598.235 86.6224 589.375 86.6224C580.516 86.6224 573.333 93.8608 573.333 102.79C573.333 111.719 580.516 118.957 589.375 118.957Z" fill="white"/>
<path opacity="0.49" d="M589.375 109.719C593.172 109.719 596.25 106.616 596.25 102.79C596.25 98.9631 593.172 95.861 589.375 95.861C585.578 95.861 582.5 98.9631 582.5 102.79C582.5 106.616 585.578 109.719 589.375 109.719Z" fill="white"/>
<path opacity="0.49" d="M614.354 79.5971L604.43 85.3711L604.445 85.3965C603.72 84.7587 602.956 84.1677 602.158 83.6271L602.184 83.6347L605.15 72.4795C605.386 71.5921 605.262 70.6467 604.806 69.8511C604.351 69.0555 603.6 68.4749 602.72 68.237L594.972 66.145C594.536 66.0272 594.081 65.9971 593.633 66.0564C593.186 66.1158 592.754 66.2634 592.363 66.4908C591.972 66.7183 591.629 67.0211 591.355 67.382C591.08 67.7429 590.878 68.1549 590.761 68.5943L587.796 79.7487L587.813 79.7538C586.86 79.8188 585.913 79.944 584.977 80.1288L584.989 80.1212L579.26 70.1208C578.804 69.3249 578.054 68.7439 577.173 68.5058C576.292 68.2676 575.354 68.3918 574.564 68.8508L567.618 72.8927C567.227 73.12 566.884 73.4227 566.609 73.7836C566.334 74.1445 566.132 74.5564 566.015 74.9959C565.898 75.4354 565.868 75.8938 565.927 76.345C565.986 76.7961 566.132 77.2312 566.358 77.6253L572.087 87.6257L572.099 87.6181C571.472 88.3425 570.891 89.106 570.359 89.904V89.8879L559.291 86.8985C558.41 86.6608 557.472 86.7854 556.683 87.2449C555.893 87.7044 555.317 88.4611 555.081 89.3486L553.005 97.1571C552.769 98.0446 552.893 98.9901 553.349 99.7857C553.805 100.581 554.555 101.162 555.436 101.4L566.504 104.388L566.511 104.362C566.576 105.328 566.702 106.29 566.888 107.24L566.873 107.215L556.95 112.989C556.559 113.216 556.216 113.519 555.941 113.88C555.666 114.241 555.464 114.652 555.347 115.092C555.23 115.531 555.2 115.99 555.259 116.441C555.318 116.892 555.464 117.327 555.69 117.721L559.7 124.722C560.156 125.518 560.907 126.099 561.787 126.337C562.668 126.575 563.606 126.451 564.396 125.992L574.319 120.218L574.297 120.179C575.03 120.824 575.804 121.422 576.613 121.968L576.565 121.954L573.6 133.109C573.483 133.549 573.453 134.007 573.512 134.458C573.571 134.909 573.717 135.344 573.943 135.738C574.169 136.132 574.469 136.477 574.827 136.754C575.185 137.031 575.594 137.234 576.03 137.352L583.778 139.444C584.214 139.562 584.669 139.592 585.116 139.532C585.564 139.473 585.995 139.325 586.386 139.098C586.777 138.871 587.12 138.568 587.395 138.207C587.67 137.846 587.871 137.434 587.988 136.994L590.954 125.84L590.896 125.824C591.875 125.759 592.848 125.63 593.811 125.438L593.76 125.468L599.49 135.468C599.715 135.862 600.015 136.208 600.374 136.485C600.732 136.762 601.14 136.965 601.576 137.083C602.013 137.201 602.467 137.231 602.915 137.172C603.363 137.113 603.794 136.965 604.185 136.738L611.131 132.696C611.522 132.469 611.865 132.166 612.14 131.805C612.415 131.444 612.617 131.032 612.734 130.593C612.851 130.153 612.881 129.695 612.822 129.244C612.763 128.793 612.617 128.358 612.391 127.963L606.662 117.963L606.612 117.993C607.258 117.248 607.855 116.463 608.401 115.641L608.386 115.699L619.454 118.689C620.334 118.926 621.273 118.802 622.062 118.342C622.852 117.883 623.428 117.126 623.664 116.238L625.74 108.431C625.975 107.543 625.852 106.598 625.396 105.802C624.94 105.006 624.189 104.425 623.309 104.188L612.241 101.199L612.228 101.247C612.164 100.268 612.037 99.2941 611.849 98.3314L611.871 98.3695L621.795 92.5955C622.186 92.3682 622.529 92.0655 622.804 91.7047C623.079 91.3439 623.28 90.9321 623.397 90.4926C623.514 90.0532 623.544 89.5949 623.486 89.1438C623.427 88.6927 623.28 88.2577 623.055 87.8636L619.054 80.8654C618.828 80.4709 618.527 80.1251 618.169 79.8478C617.81 79.5705 617.401 79.3671 616.964 79.2493C616.528 79.1315 616.073 79.1016 615.625 79.1613C615.177 79.221 614.745 79.3691 614.354 79.5971Z" fill="white"/>
</g>
<path d="M589.381 118.957C598.241 118.957 605.423 111.718 605.423 102.789C605.423 93.8605 598.241 86.6222 589.381 86.6222C580.521 86.6222 573.339 93.8605 573.339 102.789C573.339 111.718 580.521 118.957 589.381 118.957Z" stroke="#1E223B" stroke-width="2" stroke-linecap="round" stroke-linejoin="round"/>
<path d="M589.381 109.718C593.178 109.718 596.256 106.616 596.256 102.79C596.256 98.9629 593.178 95.8607 589.381 95.8607C585.584 95.8607 582.506 98.9629 582.506 102.79C582.506 106.616 585.584 109.718 589.381 109.718Z" stroke="#1E223B" stroke-width="2" stroke-linecap="round" stroke-linejoin="round"/>
<path d="M623.315 104.19L612.247 101.202L612.24 101.23C612.175 100.263 612.05 99.3016 611.864 98.351L611.878 98.3747L621.801 92.6007C622.193 92.3735 622.535 92.0708 622.81 91.71C623.085 91.3492 623.287 90.9373 623.404 90.4979C623.521 90.0585 623.551 89.6001 623.492 89.1491C623.434 88.698 623.287 88.263 623.062 87.8689L619.054 80.8656C618.598 80.0696 617.847 79.4887 616.967 79.2506C616.086 79.0124 615.147 79.1365 614.358 79.5956L604.434 85.3696L604.442 85.3849C603.724 84.7519 602.966 84.1654 602.174 83.629H602.189L605.154 72.4738C605.39 71.5863 605.266 70.6407 604.81 69.8451C604.354 69.0495 603.603 68.469 602.723 68.2313L594.976 66.1393C594.54 66.0215 594.085 65.9914 593.637 66.0507C593.19 66.11 592.758 66.2576 592.367 66.4851C591.976 66.7125 591.634 67.0154 591.359 67.3763C591.084 67.7372 590.882 68.1491 590.765 68.5886L587.8 79.7429H587.814C586.862 79.8084 585.915 79.9343 584.978 80.1197L584.993 80.1112L579.264 70.1108C578.809 69.3149 578.058 68.734 577.177 68.4958C576.297 68.2577 575.358 68.3818 574.568 68.8409L567.622 72.8827C567.231 73.11 566.888 73.4128 566.613 73.7736C566.338 74.1345 566.136 74.5465 566.019 74.986C565.902 75.4254 565.872 75.8839 565.931 76.335C565.99 76.7862 566.136 77.2212 566.362 77.6154L572.091 87.6158L572.115 87.6022C571.482 88.3327 570.896 89.1027 570.36 89.9076L570.367 89.8796L559.299 86.8902C558.419 86.6526 557.48 86.7772 556.691 87.2366C555.901 87.6961 555.325 88.4528 555.089 89.3403L553.013 97.148C552.777 98.0355 552.901 98.981 553.357 99.7767C553.812 100.572 554.563 101.153 555.444 101.391L566.512 104.38L566.523 104.338C566.589 105.316 566.717 106.29 566.906 107.253L566.882 107.209L556.958 112.983C556.567 113.211 556.224 113.513 555.949 113.874C555.674 114.235 555.473 114.647 555.355 115.086C555.238 115.526 555.209 115.984 555.267 116.435C555.326 116.886 555.472 117.321 555.698 117.715L559.709 124.716C560.164 125.512 560.915 126.093 561.796 126.331C562.676 126.569 563.615 126.445 564.404 125.986L574.327 120.212L574.298 120.159C575.036 120.811 575.815 121.414 576.631 121.964L576.574 121.948L573.608 133.103C573.491 133.542 573.461 134.001 573.52 134.452C573.579 134.903 573.726 135.338 573.951 135.732C574.177 136.126 574.477 136.471 574.836 136.748C575.194 137.025 575.602 137.228 576.038 137.346L583.786 139.438C584.222 139.556 584.677 139.586 585.125 139.527C585.572 139.468 586.004 139.32 586.395 139.092C586.786 138.865 587.128 138.562 587.403 138.201C587.678 137.84 587.879 137.428 587.996 136.989L590.962 125.834L590.905 125.819C591.884 125.753 592.858 125.624 593.821 125.431L593.769 125.462L599.498 135.462C599.723 135.857 600.024 136.202 600.382 136.479C600.74 136.757 601.149 136.96 601.585 137.078C602.021 137.196 602.476 137.226 602.923 137.167C603.371 137.107 603.803 136.96 604.194 136.732L611.139 132.69C611.531 132.463 611.874 132.16 612.149 131.8C612.424 131.439 612.626 131.027 612.743 130.587C612.86 130.148 612.889 129.689 612.831 129.238C612.772 128.787 612.625 128.352 612.399 127.958L606.67 117.957L606.627 117.983C607.269 117.244 607.863 116.465 608.405 115.65L608.394 115.693L619.462 118.683C620.343 118.921 621.281 118.796 622.07 118.336C622.86 117.877 623.436 117.12 623.672 116.233L625.748 108.425C625.981 107.538 625.856 106.595 625.4 105.801C624.944 105.007 624.194 104.428 623.315 104.19V104.19Z" stroke="#1E223B" stroke-width="2" stroke-linecap="round" stroke-linejoin="round"/>
<path d="M383.812 104.194H361.803L338.836 119.626V104.194H322.567C320.537 104.194 318.589 103.381 317.154 101.934C315.718 100.488 314.912 98.5251 314.912 96.4789V54.0432C314.912 51.9969 315.718 50.0345 317.154 48.5876C318.589 47.1407 320.537 46.3278 322.567 46.3278H383.812C384.818 46.3277 385.813 46.5272 386.742 46.9149C387.671 47.3026 388.515 47.8709 389.226 48.5873C389.937 49.3038 390.501 50.1543 390.886 51.0904C391.27 52.0266 391.469 53.0299 391.469 54.0432V96.4789C391.469 97.4921 391.27 98.4955 390.886 99.4316C390.501 100.368 389.937 101.218 389.226 101.935C388.515 102.651 387.671 103.219 386.742 103.607C385.813 103.995 384.818 104.194 383.812 104.194Z" fill="white"/>
<path d="M383.812 104.194H361.803L338.836 119.626V104.194H322.567C320.537 104.194 318.589 103.381 317.154 101.934C315.718 100.488 314.912 98.5251 314.912 96.4789V54.0432C314.912 51.9969 315.718 50.0345 317.154 48.5876C318.589 47.1407 320.537 46.3278 322.567 46.3278H383.812C384.818 46.3277 385.813 46.5272 386.742 46.9149C387.671 47.3026 388.515 47.8709 389.226 48.5873C389.937 49.3038 390.501 50.1543 390.886 51.0904C391.27 52.0266 391.469 53.0299 391.469 54.0432V96.4789C391.469 97.4921 391.27 98.4955 390.886 99.4316C390.501 100.368 389.937 101.218 389.226 101.935C388.515 102.651 387.671 103.219 386.742 103.607C385.813 103.995 384.818 104.194 383.812 104.194V104.194Z" stroke="#1E223B" stroke-width="2" stroke-linecap="round" stroke-linejoin="round"/>
<path opacity="0.5" d="M384.594 38.4694H398.846L413.715 48.4596V38.4694H424.244C425.559 38.4694 426.819 37.9431 427.749 37.0063C428.678 36.0695 429.201 34.799 429.201 33.4742V5.99513C429.201 4.67034 428.678 3.39981 427.749 2.46304C426.819 1.52627 425.559 1 424.244 1H384.594C383.279 1 382.018 1.52627 381.089 2.46304C380.159 3.39981 379.637 4.67034 379.637 5.99513V33.4725C379.637 34.1287 379.765 34.7784 380.014 35.3846C380.263 35.9908 380.628 36.5417 381.088 37.0057C381.549 37.4697 382.095 37.8378 382.696 38.089C383.298 38.3401 383.943 38.4694 384.594 38.4694Z" fill="white"/>
<path d="M384.594 38.4694H398.846L413.715 48.4596V38.4694H424.244C425.559 38.4694 426.819 37.9431 427.749 37.0063C428.678 36.0695 429.201 34.799 429.201 33.4742V5.99513C429.201 4.67034 428.678 3.39981 427.749 2.46304C426.819 1.52627 425.559 1 424.244 1H384.594C383.279 1 382.018 1.52627 381.089 2.46304C380.159 3.39981 379.637 4.67034 379.637 5.99513V33.4725C379.637 34.1287 379.765 34.7784 380.014 35.3846C380.263 35.9908 380.628 36.5417 381.088 37.0057C381.549 37.4697 382.095 37.8378 382.696 38.089C383.298 38.3401 383.943 38.4694 384.594 38.4694V38.4694Z" stroke="#1E223B" stroke-width="2" stroke-linecap="round" stroke-linejoin="round"/>
<path d="M436.311 577.192C436.311 579.407 435.659 581.573 434.437 583.415C433.216 585.258 431.48 586.693 429.448 587.541C427.417 588.389 425.182 588.611 423.026 588.178C420.87 587.746 418.889 586.679 417.335 585.112C415.781 583.545 414.722 581.549 414.293 579.376C413.864 577.203 414.084 574.951 414.926 572.904C415.767 570.857 417.192 569.107 419.02 567.876C420.848 566.645 422.997 565.988 425.195 565.988C426.655 565.988 428.101 566.278 429.449 566.841C430.798 567.404 432.023 568.229 433.056 569.27C434.088 570.31 434.906 571.545 435.465 572.904C436.024 574.264 436.311 575.721 436.311 577.192Z" fill="#DD4814"/>
<path d="M417.636 575.693C417.343 575.693 417.056 575.78 416.812 575.945C416.568 576.109 416.377 576.342 416.265 576.615C416.152 576.889 416.122 577.189 416.179 577.479C416.236 577.77 416.377 578.036 416.585 578.246C416.792 578.455 417.056 578.598 417.344 578.656C417.632 578.714 417.93 578.685 418.202 578.572C418.473 578.459 418.705 578.268 418.868 578.022C419.032 577.776 419.119 577.487 419.12 577.192C419.12 576.995 419.082 576.8 419.008 576.618C418.933 576.437 418.824 576.272 418.686 576.132C418.549 575.993 418.385 575.883 418.205 575.807C418.025 575.732 417.831 575.693 417.636 575.693ZM428.233 582.491C427.979 582.638 427.774 582.859 427.644 583.124C427.514 583.389 427.465 583.687 427.503 583.98C427.541 584.274 427.665 584.549 427.858 584.771C428.052 584.994 428.306 585.153 428.59 585.23C428.873 585.306 429.173 585.297 429.451 585.202C429.729 585.107 429.972 584.931 430.151 584.696C430.33 584.462 430.435 584.179 430.454 583.884C430.474 583.589 430.406 583.294 430.259 583.038C430.062 582.696 429.738 582.446 429.358 582.343C428.978 582.241 428.573 582.295 428.233 582.493V582.491ZM420.86 577.188C420.86 576.487 421.027 575.796 421.348 575.174C421.669 574.552 422.134 574.017 422.704 573.615L421.618 571.782C420.3 572.669 419.351 574.014 418.953 575.56C419.193 575.757 419.386 576.005 419.519 576.287C419.652 576.569 419.72 576.877 419.72 577.189C419.72 577.5 419.652 577.808 419.519 578.09C419.386 578.372 419.193 578.62 418.953 578.817C419.351 580.363 420.3 581.708 421.618 582.595L422.704 580.763C422.134 580.36 421.669 579.826 421.348 579.204C421.028 578.582 420.86 577.892 420.86 577.191V577.188ZM425.195 572.82C426.278 572.82 427.321 573.228 428.12 573.964C428.919 574.701 429.416 575.712 429.512 576.799L431.627 576.767C431.527 575.173 430.844 573.672 429.712 572.553C429.423 572.663 429.114 572.707 428.806 572.682C428.498 572.656 428.199 572.562 427.932 572.406C427.664 572.251 427.435 572.037 427.259 571.781C427.084 571.524 426.967 571.232 426.917 570.925C425.39 570.498 423.759 570.653 422.338 571.362L423.369 573.224C423.941 572.958 424.565 572.82 425.195 572.822V572.82ZM425.195 581.558C424.564 581.558 423.941 581.419 423.369 581.151L422.338 583.014C423.759 583.721 425.39 583.877 426.917 583.45C426.967 583.143 427.084 582.85 427.259 582.594C427.435 582.338 427.664 582.124 427.932 581.968C428.199 581.812 428.498 581.718 428.806 581.693C429.114 581.668 429.423 581.712 429.712 581.822C430.844 580.703 431.527 579.202 431.627 577.607L429.512 577.576C429.417 578.664 428.921 579.676 428.122 580.414C427.323 581.151 426.279 581.56 425.195 581.56V581.558ZM428.233 571.887C428.487 572.034 428.779 572.103 429.072 572.083C429.364 572.064 429.645 571.957 429.877 571.777C430.11 571.597 430.285 571.352 430.379 571.072C430.473 570.792 430.483 570.49 430.407 570.204C430.331 569.919 430.173 569.662 429.952 569.467C429.731 569.272 429.458 569.148 429.168 569.109C428.877 569.07 428.581 569.12 428.318 569.25C428.055 569.381 427.836 569.588 427.689 569.844C427.591 570.014 427.528 570.202 427.502 570.397C427.476 570.592 427.489 570.79 427.54 570.98C427.59 571.17 427.677 571.348 427.796 571.504C427.915 571.66 428.064 571.791 428.233 571.889V571.887Z" fill="white"/>
<path d="M52.5456 476.264L76.1151 462.459L76.0429 488.283L52.4725 502.088L52.5456 476.264Z" fill="#777BB4"/>
<path d="M52.5456 476.264L76.1151 462.459L76.0429 488.283L52.4725 502.088L52.5456 476.264Z" stroke="#1E223B" stroke-width="2" stroke-linecap="round" stroke-linejoin="round"/>
<path opacity="0.88" d="M30.2462 463.288L53.8157 449.483L76.115 462.458L52.5455 476.264L30.2462 463.288Z" fill="#FF5855" stroke="#1E223B" stroke-miterlimit="10"/>
<path d="M52.5456 476.263L52.4725 502.087L30.1732 489.112L30.2463 463.288L52.5456 476.263Z" fill="#0270BB"/>
<path d="M30.2462 463.288L53.8157 449.483L76.115 462.458L52.5455 476.264L30.2462 463.288Z" stroke="#1E223B" stroke-width="2" stroke-linecap="round" stroke-linejoin="round"/>
<path d="M52.5456 476.263L52.4725 502.087L30.1732 489.112L30.2463 463.288L52.5456 476.263Z" stroke="#1E223B" stroke-width="2" stroke-linecap="round" stroke-linejoin="round"/>
<path opacity="0.59" d="M35.2513 439.84C38.035 439.84 40.2916 437.566 40.2916 434.76C40.2916 431.955 38.035 429.681 35.2513 429.681C32.4676 429.681 30.2109 431.955 30.2109 434.76C30.2109 437.566 32.4676 439.84 35.2513 439.84Z" fill="white"/>
<path d="M35.2513 439.84C38.035 439.84 40.2916 437.566 40.2916 434.76C40.2916 431.955 38.035 429.681 35.2513 429.681C32.4676 429.681 30.2109 431.955 30.2109 434.76C30.2109 437.566 32.4676 439.84 35.2513 439.84Z" stroke="#1E223B" stroke-width="2" stroke-linecap="round" stroke-linejoin="round"/>
<path opacity="0.59" d="M52.4725 439.84C55.2562 439.84 57.5128 437.566 57.5128 434.76C57.5128 431.955 55.2562 429.681 52.4725 429.681C49.6888 429.681 47.4321 431.955 47.4321 434.76C47.4321 437.566 49.6888 439.84 52.4725 439.84Z" fill="white"/>
<path d="M52.4725 439.84C55.2562 439.84 57.5128 437.566 57.5128 434.76C57.5128 431.955 55.2562 429.681 52.4725 429.681C49.6888 429.681 47.4321 431.955 47.4321 434.76C47.4321 437.566 49.6888 439.84 52.4725 439.84Z" stroke="#1E223B" stroke-width="2" stroke-linecap="round" stroke-linejoin="round"/>
<path opacity="0.59" d="M69.6937 439.84C72.4774 439.84 74.734 437.566 74.734 434.76C74.734 431.955 72.4774 429.681 69.6937 429.681C66.91 429.681 64.6533 431.955 64.6533 434.76C64.6533 437.566 66.91 439.84 69.6937 439.84Z" fill="white"/>
<path opacity="0.32" d="M644.045 364.281C662.371 364.281 677.228 349.308 677.228 330.839C677.228 312.369 662.371 297.397 644.045 297.397C625.719 297.397 610.863 312.369 610.863 330.839C610.863 349.308 625.719 364.281 644.045 364.281Z" fill="white"/>
<path d="M69.6937 439.84C72.4774 439.84 74.734 437.566 74.734 434.76C74.734 431.955 72.4774 429.681 69.6937 429.681C66.91 429.681 64.6533 431.955 64.6533 434.76C64.6533 437.566 66.91 439.84 69.6937 439.84Z" stroke="#1E223B" stroke-width="2" stroke-linecap="round" stroke-linejoin="round"/>
<path opacity="0.12" d="M644.501 331.202L626.576 320.703L626.63 340.343L644.556 350.842L644.501 331.202Z" fill="#0270BB"/>
<path d="M644.501 331.202L626.576 320.703L626.63 340.343L644.556 350.842L644.501 331.202Z" stroke="#1E223B" stroke-width="2" stroke-linecap="round" stroke-linejoin="round"/>
<path opacity="0.47" d="M661.46 321.335L643.535 310.836L626.576 320.704L644.501 331.202L661.46 321.335Z" fill="#0270BB"/>
<path d="M661.46 321.335L643.535 310.836L626.576 320.704L644.501 331.202L661.46 321.335Z" stroke="#1E223B" stroke-width="2" stroke-linecap="round" stroke-linejoin="round"/>
<path d="M644.501 331.202L644.556 350.842L661.515 340.974L661.46 321.334L644.501 331.202Z" fill="white" stroke="#1E223B" stroke-width="2" stroke-linecap="round" stroke-linejoin="round"/>
<path d="M644.501 331.202L644.556 350.842L661.515 340.974L661.46 321.334L644.501 331.202Z" stroke="#1E223B" stroke-width="2" stroke-linecap="round" stroke-linejoin="round"/>
<path d="M644.045 364.281C662.371 364.281 677.228 349.308 677.228 330.839C677.228 312.369 662.371 297.397 644.045 297.397C625.719 297.397 610.863 312.369 610.863 330.839C610.863 349.308 625.719 364.281 644.045 364.281Z" stroke="#1E223B" stroke-width="2" stroke-linecap="round" stroke-linejoin="round"/>
<path d="M562.33 122.134H487.079C481.563 122.134 477.091 126.641 477.091 132.2V162.395C477.091 167.954 481.563 172.461 487.079 172.461H562.33C567.846 172.461 572.317 167.954 572.317 162.395V132.2C572.317 126.641 567.846 122.134 562.33 122.134Z" fill="#777BB4"/>
<path d="M562.33 122.134H487.079C481.563 122.134 477.091 126.641 477.091 132.2V162.395C477.091 167.954 481.563 172.461 487.079 172.461H562.33C567.846 172.461 572.317 167.954 572.317 162.395V132.2C572.317 126.641 567.846 122.134 562.33 122.134Z" stroke="#1E223B" stroke-width="2" stroke-linecap="round" stroke-linejoin="round"/>
<path d="M625.89 351.581H567.091C562.896 351.581 559.495 355.009 559.495 359.237V382.201C559.495 386.429 562.896 389.857 567.091 389.857H625.89C630.085 389.857 633.486 386.429 633.486 382.201V359.237C633.486 355.009 630.085 351.581 625.89 351.581Z" fill="#0270BB"/>
<path d="M625.89 351.581H567.091C562.896 351.581 559.495 355.009 559.495 359.237V382.201C559.495 386.429 562.896 389.857 567.091 389.857H625.89C630.085 389.857 633.486 386.429 633.486 382.201V359.237C633.486 355.009 630.085 351.581 625.89 351.581Z" stroke="#1E223B" stroke-width="2" stroke-linecap="round" stroke-linejoin="round"/>
<path d="M570.905 370.487C570.905 365.016 574.937 361.324 580.128 361.324C581.546 361.285 582.947 361.631 584.186 362.328C585.424 363.024 586.453 364.045 587.164 365.281L584.555 366.662C584.1 365.884 583.453 365.238 582.678 364.787C581.902 364.335 581.024 364.094 580.128 364.086C576.65 364.086 574.067 366.742 574.067 370.487C574.067 374.178 576.65 376.887 580.128 376.887C581.022 376.873 581.899 376.629 582.673 376.178C583.448 375.727 584.096 375.084 584.555 374.31L587.19 375.639C586.472 376.879 585.439 377.904 584.198 378.608C582.957 379.313 581.552 379.672 580.128 379.649C574.936 379.649 570.905 375.931 570.905 370.487Z" fill="white"/>
<path d="M590.482 376.833L592.221 374.417C592.928 375.195 593.787 375.816 594.744 376.241C595.701 376.666 596.736 376.886 597.782 376.887C600.311 376.887 601.286 375.639 601.286 374.443C601.286 370.725 591.061 373.036 591.061 366.53C591.061 363.581 593.591 361.324 597.466 361.324C598.669 361.282 599.869 361.481 600.995 361.909C602.121 362.338 603.152 362.988 604.027 363.821L602.288 366.13C601.611 365.467 600.811 364.945 599.934 364.594C599.056 364.243 598.119 364.071 597.175 364.086C595.383 364.086 594.224 364.989 594.224 366.287C594.224 369.607 604.448 367.562 604.448 374.149C604.448 377.097 602.367 379.646 597.65 379.646C596.327 379.7 595.008 379.478 593.774 378.994C592.541 378.51 591.42 377.775 590.482 376.833Z" fill="white"/>
<path d="M608.109 376.833L609.849 374.417C610.556 375.195 611.415 375.816 612.372 376.241C613.329 376.666 614.363 376.886 615.409 376.887C617.939 376.887 618.914 375.639 618.914 374.443C618.914 370.725 608.689 373.036 608.689 366.53C608.689 363.581 611.219 361.324 615.094 361.324C616.297 361.282 617.496 361.481 618.623 361.909C619.749 362.338 620.78 362.988 621.655 363.821L619.915 366.13C619.239 365.467 618.439 364.945 617.562 364.594C616.684 364.243 615.747 364.071 614.803 364.086C613.011 364.086 611.852 364.989 611.852 366.287C611.852 369.607 622.076 367.562 622.076 374.149C622.076 377.097 619.994 379.646 615.278 379.646C613.955 379.7 612.635 379.478 611.402 378.994C610.168 378.51 609.047 377.775 608.109 376.833Z" fill="white"/>
<path d="M491.264 158.538V135.975H501.132C505.831 135.975 508.415 139.192 508.415 143.044C508.415 146.867 505.798 150.081 501.132 150.081H495.191V158.538H491.264ZM504.387 143.044C504.387 140.879 502.81 139.46 500.595 139.46H495.191V146.597H500.595C502.81 146.597 504.386 145.175 504.386 143.044H504.387Z" fill="white"/>
<path d="M529.789 158.538V148.66H518.142V158.538H514.214V135.975H518.141V145.175H529.789V135.975H533.716V158.538H529.789Z" fill="white"/>
<path d="M540.993 158.538V135.975H550.86C555.559 135.975 558.144 139.192 558.144 143.044C558.144 146.867 555.526 150.081 550.86 150.081H544.919V158.538H540.993ZM554.115 143.044C554.115 140.879 552.538 139.46 550.323 139.46H544.919V146.597H550.323C552.538 146.597 554.117 145.175 554.117 143.044H554.115Z" fill="white"/>
<path d="M376.75 359.622C376.986 359.967 377.131 359.94 377.314 359.861C377.497 359.782 386.948 356.567 387.237 356.461C387.526 356.355 387.434 356.263 387.342 356.117C387.251 355.971 384.1 351.659 383.943 351.407C383.785 351.156 383.706 351.209 383.457 351.289L373.438 353.913C373.438 353.913 376.513 359.276 376.75 359.62V359.622Z" fill="#F35045"/>
<path d="M388.038 355.23V350.182L384.922 351.018C385.771 352.163 387.099 353.954 388.038 355.23Z" fill="#F35045"/>
<path d="M384.913 344.802C384.758 344.837 381.339 345.46 381.133 345.488C380.926 345.516 380.992 345.637 381.076 345.757L384.084 349.917C384.084 349.917 387.763 348.997 387.988 348.948L388.041 348.935V348.384C387.369 347.53 385.551 345.203 385.393 344.986C385.204 344.724 385.071 344.766 384.916 344.802H384.913Z" fill="#F35045"/>
<path d="M363.402 338.267C364.142 338.233 364.21 338.403 364.535 338.889L372.707 352.657L382.981 350.177C382.412 349.363 379.827 345.671 379.578 345.319C379.297 344.922 379.584 344.738 380.04 344.661C380.497 344.584 384.428 343.917 384.765 343.868C385.102 343.819 385.369 343.699 385.917 344.364C386.196 344.702 387.146 345.895 388.038 347.013V340.572C388.035 339.058 387.437 337.606 386.374 336.534C385.311 335.463 383.87 334.86 382.367 334.858H363.466C362.72 334.847 361.98 334.99 361.291 335.278C360.602 335.567 359.979 335.994 359.46 336.535C358.849 337.136 358.383 337.872 358.099 338.684C359.951 338.53 362.887 338.291 363.402 338.267Z" fill="#F35045"/>
<path d="M377.677 361.475C376.81 361.74 376.422 361.871 375.857 361.077C375.437 360.484 373.149 356.336 372.028 354.288C369.907 354.848 366.025 355.869 364.906 356.14C364.569 356.259 364.2 356.241 363.876 356.092C363.552 355.942 363.298 355.672 363.167 355.337C363.041 355.052 359.838 348.092 357.796 343.627V359.621C357.798 361.136 358.397 362.588 359.46 363.659C360.522 364.731 361.963 365.333 363.466 365.336H382.367C383.871 365.334 385.312 364.731 386.375 363.66C387.437 362.589 388.036 361.136 388.038 359.621V357.743C385.718 358.598 378.26 361.299 377.677 361.475Z" fill="#F35045"/>
<path d="M364.936 354.537C365.243 354.466 370.997 353.078 371.121 353.052C371.244 353.026 371.322 352.955 371.19 352.724L363.52 339.38C363.45 339.259 363.47 339.219 363.281 339.229C363.113 339.238 358.847 339.622 357.859 339.705C357.829 339.915 357.811 340.127 357.804 340.34C358.807 342.408 364.562 354.368 364.593 354.466C364.625 354.563 364.629 354.608 364.936 354.537Z" fill="#F35045"/>
<path opacity="0.32" d="M288.911 238.342H367.876" stroke="#1E223B" stroke-width="2" stroke-linecap="round" stroke-linejoin="round"/>
<path opacity="0.32" d="M288.911 245.115H339.314" stroke="#1E223B" stroke-width="2" stroke-linecap="round" stroke-linejoin="round"/>
<path opacity="0.15" d="M265.389 278.134H344.355" stroke="#1E223B" stroke-width="2" stroke-linecap="round" stroke-linejoin="round"/>
<path opacity="0.32" d="M265.389 285.471H315.793" stroke="#1E223B" stroke-width="2" stroke-linecap="round" stroke-linejoin="round"/>
<path opacity="0.32" d="M305.712 292.809H335.114" stroke="#1E223B" stroke-width="2" stroke-linecap="round" stroke-linejoin="round"/>
<path opacity="0.26" d="M265.389 292.809H300.672" stroke="#1E223B" stroke-width="2" stroke-linecap="round" stroke-linejoin="round"/>
<path opacity="0.15" d="M265.389 300.146H295.631" stroke="#1E223B" stroke-width="2" stroke-linecap="round" stroke-linejoin="round"/>
<path d="M268.75 313.975C267.858 313.975 267.004 314.332 266.374 314.967C265.743 315.602 265.389 316.463 265.389 317.361C265.389 318.26 265.743 319.121 266.374 319.756C267.004 320.391 267.858 320.748 268.75 320.748H336.515V313.975H268.75Z" fill="#4AD3A5" stroke="#1E223B" stroke-miterlimit="10"/>
<path d="M374.597 313.975H268.75C266.894 313.975 265.389 315.491 265.389 317.361C265.389 319.232 266.894 320.748 268.75 320.748H374.597C376.453 320.748 377.957 319.232 377.957 317.361C377.957 315.491 376.453 313.975 374.597 313.975Z" stroke="#1E223B" stroke-linecap="round" stroke-linejoin="round"/>
<path d="M434.031 402.588H204.275C203.231 402.588 202.385 403.441 202.385 404.493V411.69C202.385 412.742 203.231 413.595 204.275 413.595H434.031C435.075 413.595 435.921 412.742 435.921 411.69V404.493C435.921 403.441 435.075 402.588 434.031 402.588Z" fill="#263C72"/>
<path d="M435.921 402.588H202.385V413.595H435.921V402.588Z" stroke="#1E223B" stroke-width="2" stroke-linecap="round" stroke-linejoin="round"/>
<path d="M433.401 429.681H419.96C418.568 429.681 417.44 430.818 417.44 432.221V437.3C417.44 438.703 418.568 439.84 419.96 439.84H433.401C434.793 439.84 435.921 438.703 435.921 437.3V432.221C435.921 430.818 434.793 429.681 433.401 429.681Z" fill="#363D56"/>
<path d="M406.519 429.681H393.078C391.686 429.681 390.558 430.818 390.558 432.221V437.3C390.558 438.703 391.686 439.84 393.078 439.84H406.519C407.911 439.84 409.039 438.703 409.039 437.3V432.221C409.039 430.818 407.911 429.681 406.519 429.681Z" fill="#363D56"/>
<path d="M379.637 429.681H366.196C364.804 429.681 363.676 430.818 363.676 432.221V437.3C363.676 438.703 364.804 439.84 366.196 439.84H379.637C381.029 439.84 382.157 438.703 382.157 437.3V432.221C382.157 430.818 381.029 429.681 379.637 429.681Z" fill="#363D56"/>
<path d="M352.755 429.681H339.314C337.923 429.681 336.794 430.818 336.794 432.221V437.3C336.794 438.703 337.923 439.84 339.314 439.84H352.755C354.147 439.84 355.276 438.703 355.276 437.3V432.221C355.276 430.818 354.147 429.681 352.755 429.681Z" fill="#363D56"/>
<path d="M325.874 429.681H312.433C311.041 429.681 309.912 430.818 309.912 432.221V437.3C309.912 438.703 311.041 439.84 312.433 439.84H325.874C327.265 439.84 328.394 438.703 328.394 437.3V432.221C328.394 430.818 327.265 429.681 325.874 429.681Z" fill="#363D56"/>
<path d="M298.992 429.681H285.551C284.159 429.681 283.031 430.818 283.031 432.221V437.3C283.031 438.703 284.159 439.84 285.551 439.84H298.992C300.384 439.84 301.512 438.703 301.512 437.3V432.221C301.512 430.818 300.384 429.681 298.992 429.681Z" fill="#363D56"/>
<path d="M272.11 429.681H258.669C257.277 429.681 256.149 430.818 256.149 432.221V437.3C256.149 438.703 257.277 439.84 258.669 439.84H272.11C273.502 439.84 274.63 438.703 274.63 437.3V432.221C274.63 430.818 273.502 429.681 272.11 429.681Z" fill="#363D56"/>
<path d="M245.228 429.681H231.787C230.395 429.681 229.267 430.818 229.267 432.221V437.3C229.267 438.703 230.395 439.84 231.787 439.84H245.228C246.62 439.84 247.748 438.703 247.748 437.3V432.221C247.748 430.818 246.62 429.681 245.228 429.681Z" fill="#363D56"/>
<path d="M218.346 429.681H204.905C203.513 429.681 202.385 430.818 202.385 432.221V437.3C202.385 438.703 203.513 439.84 204.905 439.84H218.346C219.738 439.84 220.866 438.703 220.866 437.3V432.221C220.866 430.818 219.738 429.681 218.346 429.681Z" fill="#363D56"/>
<path d="M379.637 451.25H366.196C364.804 451.25 363.676 452.387 363.676 453.79V467.336C363.676 468.739 364.804 469.876 366.196 469.876H379.637C381.029 469.876 382.157 468.739 382.157 467.336V453.79C382.157 452.387 381.029 451.25 379.637 451.25Z" fill="#363D56"/>
<path d="M352.755 451.25H339.314C337.923 451.25 336.794 452.387 336.794 453.79V467.336C336.794 468.739 337.923 469.876 339.314 469.876H352.755C354.147 469.876 355.276 468.739 355.276 467.336V453.79C355.276 452.387 354.147 451.25 352.755 451.25Z" fill="#363D56"/>
<path d="M325.874 451.25H312.433C311.041 451.25 309.912 452.387 309.912 453.79V467.336C309.912 468.739 311.041 469.876 312.433 469.876H325.874C327.265 469.876 328.394 468.739 328.394 467.336V453.79C328.394 452.387 327.265 451.25 325.874 451.25Z" fill="#363D56"/>
<path d="M298.992 451.25H285.551C284.159 451.25 283.031 452.387 283.031 453.79V467.336C283.031 468.739 284.159 469.876 285.551 469.876H298.992C300.384 469.876 301.512 468.739 301.512 467.336V453.79C301.512 452.387 300.384 451.25 298.992 451.25Z" fill="#363D56"/>
<path d="M272.11 451.25H258.669C257.277 451.25 256.149 452.387 256.149 453.79V467.336C256.149 468.739 257.277 469.876 258.669 469.876H272.11C273.502 469.876 274.63 468.739 274.63 467.336V453.79C274.63 452.387 273.502 451.25 272.11 451.25Z" fill="#363D56"/>
<path d="M245.228 451.25H231.787C230.395 451.25 229.267 452.387 229.267 453.79V467.336C229.267 468.739 230.395 469.876 231.787 469.876H245.228C246.62 469.876 247.748 468.739 247.748 467.336V453.79C247.748 452.387 246.62 451.25 245.228 451.25Z" fill="#363D56"/>
<path d="M218.346 451.25H204.905C203.513 451.25 202.385 452.387 202.385 453.79V467.336C202.385 468.739 203.513 469.876 204.905 469.876H218.346C219.738 469.876 220.866 468.739 220.866 467.336V453.79C220.866 452.387 219.738 451.25 218.346 451.25Z" fill="#363D56"/>
<path d="M433.401 451.25H419.96C418.568 451.25 417.44 452.387 417.44 453.79V494.015C417.44 495.418 418.568 496.555 419.96 496.555H433.401C434.793 496.555 435.921 495.418 435.921 494.015V453.79C435.921 452.387 434.793 451.25 433.401 451.25Z" fill="#363D56"/>
<path d="M406.519 451.25H393.078C392.41 451.25 391.769 451.517 391.296 451.994C390.823 452.47 390.558 453.116 390.558 453.79V475.389C390.558 476.063 390.292 476.709 389.82 477.185C389.347 477.661 388.706 477.929 388.038 477.929H366.196C365.528 477.929 364.887 478.197 364.414 478.673C363.942 479.149 363.676 479.795 363.676 480.469V494.015C363.676 494.689 363.942 495.335 364.414 495.811C364.887 496.287 365.528 496.555 366.196 496.555H406.519C407.187 496.555 407.829 496.287 408.301 495.811C408.774 495.335 409.039 494.689 409.039 494.015V453.79C409.039 453.116 408.774 452.47 408.301 451.994C407.829 451.517 407.187 451.25 406.519 451.25Z" fill="#363D56"/>
<path d="M352.755 477.929H339.314C337.923 477.929 336.794 479.066 336.794 480.469V494.015C336.794 495.417 337.923 496.555 339.314 496.555H352.755C354.147 496.555 355.276 495.417 355.276 494.015V480.469C355.276 479.066 354.147 477.929 352.755 477.929Z" fill="#363D56"/>
<path d="M325.874 477.929H312.433C311.041 477.929 309.912 479.066 309.912 480.469V494.015C309.912 495.417 311.041 496.555 312.433 496.555H325.874C327.265 496.555 328.394 495.417 328.394 494.015V480.469C328.394 479.066 327.265 477.929 325.874 477.929Z" fill="#363D56"/>
<path d="M298.992 477.929H285.551C284.159 477.929 283.031 479.066 283.031 480.469V494.015C283.031 495.417 284.159 496.555 285.551 496.555H298.992C300.384 496.555 301.512 495.417 301.512 494.015V480.469C301.512 479.066 300.384 477.929 298.992 477.929Z" fill="#363D56"/>
<path d="M272.11 477.929H258.669C257.277 477.929 256.149 479.066 256.149 480.469V494.015C256.149 495.417 257.277 496.555 258.669 496.555H272.11C273.502 496.555 274.63 495.417 274.63 494.015V480.469C274.63 479.066 273.502 477.929 272.11 477.929Z" fill="#363D56"/>
<path d="M245.228 477.929H204.905C203.513 477.929 202.385 479.066 202.385 480.469V494.015C202.385 495.417 203.513 496.555 204.905 496.555H245.228C246.62 496.555 247.748 495.417 247.748 494.015V480.469C247.748 479.066 246.62 477.929 245.228 477.929Z" fill="#363D56"/>
<path d="M433.401 504.607H419.96C418.568 504.607 417.44 505.745 417.44 507.147V520.693C417.44 522.096 418.568 523.233 419.96 523.233H433.401C434.793 523.233 435.921 522.096 435.921 520.693V507.147C435.921 505.745 434.793 504.607 433.401 504.607Z" fill="#363D56"/>
<path d="M406.519 504.607H393.078C391.686 504.607 390.558 505.745 390.558 507.147V520.693C390.558 522.096 391.686 523.233 393.078 523.233H406.519C407.911 523.233 409.039 522.096 409.039 520.693V507.147C409.039 505.745 407.911 504.607 406.519 504.607Z" fill="#363D56"/>
<path d="M379.637 504.607H366.196C364.804 504.607 363.676 505.745 363.676 507.147V520.693C363.676 522.096 364.804 523.233 366.196 523.233H379.637C381.029 523.233 382.157 522.096 382.157 520.693V507.147C382.157 505.745 381.029 504.607 379.637 504.607Z" fill="#363D56"/>
<path d="M352.755 504.607H285.551C284.159 504.607 283.031 505.745 283.031 507.147V520.693C283.031 522.096 284.159 523.233 285.551 523.233H352.755C354.147 523.233 355.276 522.096 355.276 520.693V507.147C355.276 505.745 354.147 504.607 352.755 504.607Z" fill="#363D56"/>
<path d="M272.11 504.607H258.669C257.277 504.607 256.149 505.745 256.149 507.147V520.693C256.149 522.096 257.277 523.233 258.669 523.233H272.11C273.502 523.233 274.63 522.096 274.63 520.693V507.147C274.63 505.745 273.502 504.607 272.11 504.607Z" fill="#363D56"/>
<path d="M245.228 504.607H231.787C230.395 504.607 229.267 505.745 229.267 507.147V520.693C229.267 522.096 230.395 523.233 231.787 523.233H245.228C246.62 523.233 247.748 522.096 247.748 520.693V507.147C247.748 505.745 246.62 504.607 245.228 504.607Z" fill="#363D56"/>
<path d="M218.346 504.607H204.905C203.513 504.607 202.385 505.745 202.385 507.147V520.693C202.385 522.096 203.513 523.233 204.905 523.233H218.346C219.738 523.233 220.866 522.096 220.866 520.693V507.147C220.866 505.745 219.738 504.607 218.346 504.607Z" fill="#363D56"/>
<path d="M433.401 429.681H419.96C418.568 429.681 417.44 430.818 417.44 432.221V437.3C417.44 438.703 418.568 439.84 419.96 439.84H433.401C434.793 439.84 435.921 438.703 435.921 437.3V432.221C435.921 430.818 434.793 429.681 433.401 429.681Z" stroke="#1E223B" stroke-width="2" stroke-linecap="round" stroke-linejoin="round"/>
<path d="M406.519 429.681H393.078C391.686 429.681 390.558 430.818 390.558 432.221V437.3C390.558 438.703 391.686 439.84 393.078 439.84H406.519C407.911 439.84 409.039 438.703 409.039 437.3V432.221C409.039 430.818 407.911 429.681 406.519 429.681Z" stroke="#1E223B" stroke-width="2" stroke-linecap="round" stroke-linejoin="round"/>
<path d="M379.637 429.681H366.196C364.804 429.681 363.676 430.818 363.676 432.221V437.3C363.676 438.703 364.804 439.84 366.196 439.84H379.637C381.029 439.84 382.157 438.703 382.157 437.3V432.221C382.157 430.818 381.029 429.681 379.637 429.681Z" stroke="#1E223B" stroke-width="2" stroke-linecap="round" stroke-linejoin="round"/>
<path d="M352.755 429.681H339.314C337.923 429.681 336.794 430.818 336.794 432.221V437.3C336.794 438.703 337.923 439.84 339.314 439.84H352.755C354.147 439.84 355.276 438.703 355.276 437.3V432.221C355.276 430.818 354.147 429.681 352.755 429.681Z" stroke="#1E223B" stroke-width="2" stroke-linecap="round" stroke-linejoin="round"/>
<path d="M325.874 429.681H312.433C311.041 429.681 309.912 430.818 309.912 432.221V437.3C309.912 438.703 311.041 439.84 312.433 439.84H325.874C327.265 439.84 328.394 438.703 328.394 437.3V432.221C328.394 430.818 327.265 429.681 325.874 429.681Z" stroke="#1E223B" stroke-width="2" stroke-linecap="round" stroke-linejoin="round"/>
<path d="M298.992 429.681H285.551C284.159 429.681 283.031 430.818 283.031 432.221V437.3C283.031 438.703 284.159 439.84 285.551 439.84H298.992C300.384 439.84 301.512 438.703 301.512 437.3V432.221C301.512 430.818 300.384 429.681 298.992 429.681Z" stroke="#1E223B" stroke-width="2" stroke-linecap="round" stroke-linejoin="round"/>
<path d="M272.11 429.681H258.669C257.277 429.681 256.149 430.818 256.149 432.221V437.3C256.149 438.703 257.277 439.84 258.669 439.84H272.11C273.502 439.84 274.63 438.703 274.63 437.3V432.221C274.63 430.818 273.502 429.681 272.11 429.681Z" stroke="#1E223B" stroke-width="2" stroke-linecap="round" stroke-linejoin="round"/>
<path d="M245.228 429.681H231.787C230.395 429.681 229.267 430.818 229.267 432.221V437.3C229.267 438.703 230.395 439.84 231.787 439.84H245.228C246.62 439.84 247.748 438.703 247.748 437.3V432.221C247.748 430.818 246.62 429.681 245.228 429.681Z" stroke="#1E223B" stroke-width="2" stroke-linecap="round" stroke-linejoin="round"/>
<path d="M218.346 429.681H204.905C203.513 429.681 202.385 430.818 202.385 432.221V437.3C202.385 438.703 203.513 439.84 204.905 439.84H218.346C219.738 439.84 220.866 438.703 220.866 437.3V432.221C220.866 430.818 219.738 429.681 218.346 429.681Z" stroke="#1E223B" stroke-width="2" stroke-linecap="round" stroke-linejoin="round"/>
<path d="M379.637 451.25H366.196C364.804 451.25 363.676 452.387 363.676 453.79V467.336C363.676 468.739 364.804 469.876 366.196 469.876H379.637C381.029 469.876 382.157 468.739 382.157 467.336V453.79C382.157 452.387 381.029 451.25 379.637 451.25Z" stroke="#1E223B" stroke-width="2" stroke-linecap="round" stroke-linejoin="round"/>
<path d="M352.755 451.25H339.314C337.923 451.25 336.794 452.387 336.794 453.79V467.336C336.794 468.739 337.923 469.876 339.314 469.876H352.755C354.147 469.876 355.276 468.739 355.276 467.336V453.79C355.276 452.387 354.147 451.25 352.755 451.25Z" stroke="#1E223B" stroke-width="2" stroke-linecap="round" stroke-linejoin="round"/>
<path d="M325.874 451.25H312.433C311.041 451.25 309.912 452.387 309.912 453.79V467.336C309.912 468.739 311.041 469.876 312.433 469.876H325.874C327.265 469.876 328.394 468.739 328.394 467.336V453.79C328.394 452.387 327.265 451.25 325.874 451.25Z" stroke="#1E223B" stroke-width="2" stroke-linecap="round" stroke-linejoin="round"/>
<path d="M298.992 451.25H285.551C284.159 451.25 283.031 452.387 283.031 453.79V467.336C283.031 468.739 284.159 469.876 285.551 469.876H298.992C300.384 469.876 301.512 468.739 301.512 467.336V453.79C301.512 452.387 300.384 451.25 298.992 451.25Z" stroke="#1E223B" stroke-width="2" stroke-linecap="round" stroke-linejoin="round"/>
<path d="M272.11 451.25H258.669C257.277 451.25 256.149 452.387 256.149 453.79V467.336C256.149 468.739 257.277 469.876 258.669 469.876H272.11C273.502 469.876 274.63 468.739 274.63 467.336V453.79C274.63 452.387 273.502 451.25 272.11 451.25Z" stroke="#1E223B" stroke-width="2" stroke-linecap="round" stroke-linejoin="round"/>
<path d="M245.228 451.25H231.787C230.395 451.25 229.267 452.387 229.267 453.79V467.336C229.267 468.739 230.395 469.876 231.787 469.876H245.228C246.62 469.876 247.748 468.739 247.748 467.336V453.79C247.748 452.387 246.62 451.25 245.228 451.25Z" stroke="#1E223B" stroke-width="2" stroke-linecap="round" stroke-linejoin="round"/>
<path d="M218.346 451.25H204.905C203.513 451.25 202.385 452.387 202.385 453.79V467.336C202.385 468.739 203.513 469.876 204.905 469.876H218.346C219.738 469.876 220.866 468.739 220.866 467.336V453.79C220.866 452.387 219.738 451.25 218.346 451.25Z" stroke="#1E223B" stroke-width="2" stroke-linecap="round" stroke-linejoin="round"/>
<path d="M433.401 451.25H419.96C418.568 451.25 417.44 452.387 417.44 453.79V494.015C417.44 495.418 418.568 496.555 419.96 496.555H433.401C434.793 496.555 435.921 495.418 435.921 494.015V453.79C435.921 452.387 434.793 451.25 433.401 451.25Z" stroke="#1E223B" stroke-width="2" stroke-linecap="round" stroke-linejoin="round"/>
<path d="M406.519 451.25H393.078C392.41 451.25 391.769 451.517 391.296 451.994C390.823 452.47 390.558 453.116 390.558 453.79V475.389C390.558 476.063 390.292 476.709 389.82 477.185C389.347 477.661 388.706 477.929 388.038 477.929H366.196C365.528 477.929 364.887 478.197 364.414 478.673C363.942 479.149 363.676 479.795 363.676 480.469V494.015C363.676 494.689 363.942 495.335 364.414 495.811C364.887 496.287 365.528 496.555 366.196 496.555H406.519C407.187 496.555 407.829 496.287 408.301 495.811C408.774 495.335 409.039 494.689 409.039 494.015V453.79C409.039 453.116 408.774 452.47 408.301 451.994C407.829 451.517 407.187 451.25 406.519 451.25Z" stroke="#1E223B" stroke-width="2" stroke-linecap="round" stroke-linejoin="round"/>
<path d="M352.755 477.929H339.314C337.923 477.929 336.794 479.066 336.794 480.469V494.015C336.794 495.417 337.923 496.555 339.314 496.555H352.755C354.147 496.555 355.276 495.417 355.276 494.015V480.469C355.276 479.066 354.147 477.929 352.755 477.929Z" stroke="#1E223B" stroke-width="2" stroke-linecap="round" stroke-linejoin="round"/>
<path d="M325.874 477.929H312.433C311.041 477.929 309.912 479.066 309.912 480.469V494.015C309.912 495.417 311.041 496.555 312.433 496.555H325.874C327.265 496.555 328.394 495.417 328.394 494.015V480.469C328.394 479.066 327.265 477.929 325.874 477.929Z" stroke="#1E223B" stroke-width="2" stroke-linecap="round" stroke-linejoin="round"/>
<path d="M298.992 477.929H285.551C284.159 477.929 283.031 479.066 283.031 480.469V494.015C283.031 495.417 284.159 496.555 285.551 496.555H298.992C300.384 496.555 301.512 495.417 301.512 494.015V480.469C301.512 479.066 300.384 477.929 298.992 477.929Z" stroke="#1E223B" stroke-width="2" stroke-linecap="round" stroke-linejoin="round"/>
<path d="M272.11 477.929H258.669C257.277 477.929 256.149 479.066 256.149 480.469V494.015C256.149 495.417 257.277 496.555 258.669 496.555H272.11C273.502 496.555 274.63 495.417 274.63 494.015V480.469C274.63 479.066 273.502 477.929 272.11 477.929Z" stroke="#1E223B" stroke-width="2" stroke-linecap="round" stroke-linejoin="round"/>
<path d="M245.228 477.929H204.905C203.513 477.929 202.385 479.066 202.385 480.469V494.015C202.385 495.417 203.513 496.555 204.905 496.555H245.228C246.62 496.555 247.748 495.417 247.748 494.015V480.469C247.748 479.066 246.62 477.929 245.228 477.929Z" stroke="#1E223B" stroke-width="2" stroke-linecap="round" stroke-linejoin="round"/>
<path d="M433.401 504.607H419.96C418.568 504.607 417.44 505.745 417.44 507.147V520.693C417.44 522.096 418.568 523.233 419.96 523.233H433.401C434.793 523.233 435.921 522.096 435.921 520.693V507.147C435.921 505.745 434.793 504.607 433.401 504.607Z" stroke="#1E223B" stroke-width="2" stroke-linecap="round" stroke-linejoin="round"/>
<path d="M406.519 504.607H393.078C391.686 504.607 390.558 505.745 390.558 507.147V520.693C390.558 522.096 391.686 523.233 393.078 523.233H406.519C407.911 523.233 409.039 522.096 409.039 520.693V507.147C409.039 505.745 407.911 504.607 406.519 504.607Z" stroke="#1E223B" stroke-width="2" stroke-linecap="round" stroke-linejoin="round"/>
<path d="M379.637 504.607H366.196C364.804 504.607 363.676 505.745 363.676 507.147V520.693C363.676 522.096 364.804 523.233 366.196 523.233H379.637C381.029 523.233 382.157 522.096 382.157 520.693V507.147C382.157 505.745 381.029 504.607 379.637 504.607Z" stroke="#1E223B" stroke-width="2" stroke-linecap="round" stroke-linejoin="round"/>
<path d="M352.755 504.607H285.551C284.159 504.607 283.031 505.745 283.031 507.147V520.693C283.031 522.096 284.159 523.233 285.551 523.233H352.755C354.147 523.233 355.276 522.096 355.276 520.693V507.147C355.276 505.745 354.147 504.607 352.755 504.607Z" stroke="#1E223B" stroke-width="2" stroke-linecap="round" stroke-linejoin="round"/>
<path d="M272.11 504.607H258.669C257.277 504.607 256.149 505.745 256.149 507.147V520.693C256.149 522.096 257.277 523.233 258.669 523.233H272.11C273.502 523.233 274.63 522.096 274.63 520.693V507.147C274.63 505.745 273.502 504.607 272.11 504.607Z" stroke="#1E223B" stroke-width="2" stroke-linecap="round" stroke-linejoin="round"/>
<path d="M245.228 504.607H231.787C230.395 504.607 229.267 505.745 229.267 507.147V520.693C229.267 522.096 230.395 523.233 231.787 523.233H245.228C246.62 523.233 247.748 522.096 247.748 520.693V507.147C247.748 505.745 246.62 504.607 245.228 504.607Z" stroke="#1E223B" stroke-width="2" stroke-linecap="round" stroke-linejoin="round"/>
<path d="M218.346 504.607H204.905C203.513 504.607 202.385 505.745 202.385 507.147V520.693C202.385 522.096 203.513 523.233 204.905 523.233H218.346C219.738 523.233 220.866 522.096 220.866 520.693V507.147C220.866 505.745 219.738 504.607 218.346 504.607Z" stroke="#1E223B" stroke-width="2" stroke-linecap="round" stroke-linejoin="round"/>
<path d="M257.11 583.654H220.147V617.519H257.11V583.654Z" fill="#F2A197"/>
<path d="M257.11 583.654H220.147V617.519H257.11V583.654Z" stroke="#1E223B" stroke-width="2" stroke-linecap="round" stroke-linejoin="round"/>
<path d="M259.94 609.9H216.343V631.501H259.94V609.9Z" fill="white"/>
<path d="M259.94 609.9H216.343V631.501H259.94V609.9Z" stroke="#1E223B" stroke-width="2" stroke-linecap="round" stroke-linejoin="round"/>
<path d="M214.71 630.952H261.572C263.017 630.952 264.403 631.531 265.425 632.561C266.447 633.591 267.022 634.988 267.022 636.444V735.294H209.261V636.444C209.261 634.987 209.835 633.59 210.857 632.561C211.879 631.531 213.265 630.952 214.71 630.952Z" fill="#1E223B"/>
<path d="M214.71 630.952H261.572C263.017 630.952 264.403 631.531 265.425 632.561C266.447 633.591 267.022 634.988 267.022 636.444V735.294H209.261V636.444C209.261 634.987 209.835 633.59 210.857 632.561C211.879 631.531 213.265 630.952 214.71 630.952V630.952Z" stroke="#1E223B" stroke-width="2" stroke-linecap="round" stroke-linejoin="round"/>
<path opacity="0.2" d="M252.153 624.911C254.461 624.911 256.331 623.026 256.331 620.7C256.331 618.375 254.461 616.49 252.153 616.49C249.846 616.49 247.976 618.375 247.976 620.7C247.976 623.026 249.846 624.911 252.153 624.911Z" fill="#1E223B"/>
<path d="M252.153 624.911C254.461 624.911 256.331 623.026 256.331 620.7C256.331 618.375 254.461 616.49 252.153 616.49C249.846 616.49 247.976 618.375 247.976 620.7C247.976 623.026 249.846 624.911 252.153 624.911Z" stroke="#1E223B" stroke-width="2" stroke-linecap="round" stroke-linejoin="round"/>
<path d="M283.986 539.761L285.077 540.396C286.235 541.069 287.08 542.179 287.426 543.48C287.772 544.782 287.59 546.168 286.922 547.335L265.501 584.728L255.679 579.014L277.101 541.62C277.769 540.453 278.87 539.602 280.161 539.253C281.452 538.905 282.828 539.087 283.986 539.761Z" fill="#F2A197"/>
<path d="M283.986 539.761L285.077 540.396C286.235 541.069 287.08 542.179 287.426 543.48C287.772 544.782 287.59 546.168 286.922 547.335L265.501 584.728L255.679 579.014L277.101 541.62C277.769 540.453 278.87 539.602 280.161 539.253C281.452 538.905 282.828 539.087 283.986 539.761V539.761Z" stroke="#1E223B" stroke-width="2" stroke-linecap="round" stroke-linejoin="round"/>
<path d="M263.344 487.012H262.084C260.747 487.012 259.465 487.548 258.52 488.5C257.574 489.453 257.043 490.745 257.043 492.092V530.191C257.043 530.864 256.778 531.51 256.305 531.987C255.833 532.463 255.192 532.731 254.523 532.731C253.855 532.731 253.214 532.463 252.741 531.987C252.269 531.51 252.003 530.864 252.003 530.191V484.727C252.003 483.379 251.472 482.087 250.527 481.135C249.582 480.182 248.299 479.647 246.963 479.647H245.703C244.366 479.647 243.084 480.182 242.139 481.135C241.193 482.087 240.662 483.379 240.662 484.727V530.191C240.662 530.864 240.397 531.51 239.924 531.987C239.451 532.463 238.81 532.731 238.142 532.731C237.474 532.731 236.833 532.463 236.36 531.987C235.887 531.51 235.622 530.864 235.622 530.191V492.092C235.622 490.745 235.091 489.453 234.146 488.5C233.2 487.548 231.918 487.012 230.582 487.012H229.321C227.985 487.012 226.703 487.548 225.757 488.5C224.812 489.453 224.281 490.745 224.281 492.092V530.191C224.281 530.864 224.016 531.51 223.543 531.987C223.07 532.463 222.429 532.731 221.761 532.731C221.093 532.731 220.452 532.463 219.979 531.987C219.506 531.51 219.241 530.864 219.241 530.191V504.157C219.241 502.809 218.71 501.517 217.765 500.565C216.819 499.612 215.537 499.077 214.2 499.077H212.94C211.604 499.077 210.322 499.612 209.376 500.565C208.431 501.517 207.9 502.809 207.9 504.157V578.868C207.9 581.562 208.962 584.146 210.853 586.052C212.743 587.957 215.307 589.027 217.981 589.027H258.303C260.977 589.027 263.541 587.957 265.432 586.052C267.322 584.146 268.384 581.562 268.384 578.868V492.093C268.384 491.426 268.254 490.765 268.001 490.149C267.747 489.532 267.376 488.972 266.908 488.501C266.44 488.029 265.884 487.654 265.273 487.399C264.661 487.144 264.006 487.012 263.344 487.012Z" fill="#FDB3A6"/>
<path d="M263.344 487.012H262.084C260.747 487.012 259.465 487.548 258.52 488.5C257.574 489.453 257.043 490.745 257.043 492.092V530.191C257.043 530.864 256.778 531.51 256.305 531.987C255.833 532.463 255.192 532.731 254.523 532.731V532.731C253.855 532.731 253.214 532.463 252.741 531.987C252.269 531.51 252.003 530.864 252.003 530.191V484.727C252.003 483.379 251.472 482.087 250.527 481.135C249.582 480.182 248.299 479.647 246.963 479.647H245.703C244.366 479.647 243.084 480.182 242.139 481.135C241.193 482.087 240.662 483.379 240.662 484.727V530.191C240.662 530.864 240.397 531.51 239.924 531.987C239.451 532.463 238.81 532.731 238.142 532.731V532.731C237.474 532.731 236.833 532.463 236.36 531.987C235.887 531.51 235.622 530.864 235.622 530.191V492.092C235.622 490.745 235.091 489.453 234.146 488.5C233.2 487.548 231.918 487.012 230.582 487.012H229.321C227.985 487.012 226.703 487.548 225.757 488.5C224.812 489.453 224.281 490.745 224.281 492.092V530.191C224.281 530.864 224.016 531.51 223.543 531.987C223.07 532.463 222.429 532.731 221.761 532.731V532.731C221.093 532.731 220.452 532.463 219.979 531.987C219.506 531.51 219.241 530.864 219.241 530.191V504.157C219.241 502.809 218.71 501.517 217.765 500.565C216.819 499.612 215.537 499.077 214.2 499.077H212.94C211.604 499.077 210.322 499.612 209.376 500.565C208.431 501.517 207.9 502.809 207.9 504.157V578.868C207.9 581.562 208.962 584.146 210.853 586.052C212.743 587.957 215.307 589.027 217.981 589.027H258.303C260.977 589.027 263.541 587.957 265.432 586.052C267.322 584.146 268.384 581.562 268.384 578.868V492.093C268.384 491.426 268.254 490.765 268.001 490.149C267.747 489.532 267.376 488.972 266.908 488.501C266.44 488.029 265.884 487.654 265.273 487.399C264.661 487.144 264.006 487.012 263.344 487.012V487.012Z" stroke="#1E223B" stroke-width="2" stroke-linecap="round" stroke-linejoin="round"/>
<path d="M348.137 658.397H311.174V692.262H348.137V658.397Z" fill="#F2A197"/>
<path d="M348.137 658.397H311.174V692.262H348.137V658.397Z" stroke="#1E223B" stroke-width="2" stroke-linecap="round" stroke-linejoin="round"/>
<path d="M311.167 653.756L301.345 659.471L279.924 622.077C279.255 620.91 279.074 619.524 279.42 618.223C279.766 616.921 280.611 615.812 281.769 615.138L282.86 614.503C284.017 613.829 285.393 613.647 286.684 613.996C287.976 614.344 289.077 615.196 289.745 616.362L311.167 653.756Z" fill="#F2A197"/>
<path d="M311.167 653.756L301.345 659.471L279.924 622.077C279.255 620.91 279.074 619.524 279.42 618.223C279.766 616.921 280.611 615.812 281.769 615.138L282.86 614.503C284.017 613.829 285.393 613.647 286.684 613.996C287.976 614.344 289.077 615.196 289.745 616.362L311.167 653.756Z" stroke="#1E223B" stroke-width="2" stroke-linecap="round" stroke-linejoin="round"/>
<path d="M304.452 561.755H305.712C307.049 561.755 308.331 562.29 309.276 563.243C310.221 564.196 310.753 565.488 310.753 566.835V604.933C310.753 605.607 311.018 606.253 311.491 606.729C311.963 607.206 312.604 607.473 313.273 607.473C313.941 607.473 314.582 607.206 315.055 606.729C315.527 606.253 315.793 605.607 315.793 604.933V598.861C315.793 597.514 316.324 596.222 317.269 595.269C318.214 594.317 319.496 593.781 320.833 593.781H322.093C323.43 593.781 324.712 594.317 325.657 595.269C326.603 596.222 327.134 597.514 327.134 598.861V604.933C327.134 605.607 327.399 606.253 327.872 606.729C328.344 607.206 328.985 607.473 329.654 607.473C330.322 607.473 330.963 607.206 331.436 606.729C331.908 606.253 332.174 605.607 332.174 604.933V598.861C332.174 597.514 332.705 596.222 333.65 595.269C334.596 594.317 335.878 593.781 337.214 593.781H338.474C339.811 593.781 341.093 594.317 342.038 595.269C342.984 596.222 343.515 597.514 343.515 598.861V604.933C343.515 605.607 343.78 606.253 344.253 606.729C344.726 607.206 345.367 607.473 346.035 607.473C346.703 607.473 347.344 607.206 347.817 606.729C348.29 606.253 348.555 605.607 348.555 604.933V598.861C348.555 597.514 349.086 596.222 350.031 595.269C350.977 594.317 352.259 593.781 353.595 593.781H354.856C356.192 593.781 357.474 594.317 358.42 595.269C359.365 596.222 359.896 597.514 359.896 598.861V653.61C359.896 656.305 358.834 658.889 356.943 660.794C355.053 662.7 352.489 663.77 349.815 663.77H309.492C306.819 663.77 304.255 662.7 302.364 660.794C300.474 658.889 299.412 656.305 299.412 653.61V566.836C299.412 566.169 299.542 565.508 299.795 564.892C300.048 564.275 300.42 563.715 300.888 563.243C301.356 562.771 301.911 562.397 302.523 562.142C303.135 561.887 303.79 561.755 304.452 561.755Z" fill="#FDB3A6"/>
<path d="M304.452 561.755H305.712C307.049 561.755 308.331 562.29 309.276 563.243C310.221 564.196 310.753 565.488 310.753 566.835V604.933C310.753 605.607 311.018 606.253 311.491 606.729C311.963 607.206 312.604 607.473 313.273 607.473C313.941 607.473 314.582 607.206 315.055 606.729C315.527 606.253 315.793 605.607 315.793 604.933V598.861C315.793 597.514 316.324 596.222 317.269 595.269C318.214 594.317 319.496 593.781 320.833 593.781H322.093C323.43 593.781 324.712 594.317 325.657 595.269C326.603 596.222 327.134 597.514 327.134 598.861V604.933C327.134 605.607 327.399 606.253 327.872 606.729C328.344 607.206 328.985 607.473 329.654 607.473C330.322 607.473 330.963 607.206 331.436 606.729C331.908 606.253 332.174 605.607 332.174 604.933V598.861C332.174 597.514 332.705 596.222 333.65 595.269C334.596 594.317 335.878 593.781 337.214 593.781H338.474C339.811 593.781 341.093 594.317 342.038 595.269C342.984 596.222 343.515 597.514 343.515 598.861V604.933C343.515 605.607 343.78 606.253 344.253 606.729C344.726 607.206 345.367 607.473 346.035 607.473C346.703 607.473 347.344 607.206 347.817 606.729C348.29 606.253 348.555 605.607 348.555 604.933V598.861C348.555 597.514 349.086 596.222 350.031 595.269C350.977 594.317 352.259 593.781 353.595 593.781H354.856C356.192 593.781 357.474 594.317 358.42 595.269C359.365 596.222 359.896 597.514 359.896 598.861V653.61C359.896 656.305 358.834 658.889 356.943 660.794C355.053 662.7 352.489 663.77 349.815 663.77H309.492C306.819 663.77 304.255 662.7 302.364 660.794C300.474 658.889 299.412 656.305 299.412 653.61V566.836C299.412 566.169 299.542 565.508 299.795 564.892C300.048 564.275 300.42 563.715 300.888 563.243C301.356 562.771 301.911 562.397 302.523 562.142C303.135 561.887 303.79 561.755 304.452 561.755Z" stroke="#1E223B" stroke-width="2" stroke-linecap="round" stroke-linejoin="round"/>
<path d="M351.454 684.642H307.857V706.243H351.454V684.642Z" fill="white"/>
<path d="M351.454 684.642H307.857V706.243H351.454V684.642Z" stroke="#1E223B" stroke-width="2" stroke-linecap="round" stroke-linejoin="round"/>
<path d="M306.225 705.695H353.086C354.532 705.695 355.918 706.273 356.94 707.303C357.962 708.333 358.536 709.73 358.536 711.187V736.807H300.776V711.186C300.776 709.73 301.35 708.333 302.372 707.303C303.394 706.274 304.78 705.695 306.225 705.695Z" fill="#1E223B"/>
<path d="M306.225 705.695H353.086C354.532 705.695 355.918 706.273 356.94 707.303C357.962 708.333 358.536 709.73 358.536 711.187V736.807H300.776V711.186C300.776 709.73 301.35 708.333 302.372 707.303C303.394 706.274 304.78 705.695 306.225 705.695V705.695Z" stroke="#1E223B" stroke-width="2" stroke-linecap="round" stroke-linejoin="round"/>
<path d="M317.077 699.653C319.384 699.653 321.255 697.768 321.255 695.443C321.255 693.118 319.384 691.233 317.077 691.233C314.77 691.233 312.9 693.118 312.9 695.443C312.9 697.768 314.77 699.653 317.077 699.653Z" stroke="#1E223B" stroke-width="2" stroke-linecap="round" stroke-linejoin="round"/>
<path opacity="0.2" d="M317.077 699.653C319.384 699.653 321.255 697.768 321.255 695.443C321.255 693.118 319.384 691.233 317.077 691.233C314.77 691.233 312.9 693.118 312.9 695.443C312.9 697.768 314.77 699.653 317.077 699.653Z" fill="#1E223B"/>
<path d="M331.334 63.3117H376.697" stroke="#1E223B" stroke-width="3" stroke-linecap="round" stroke-linejoin="round"/>
<path d="M331.334 74.7412H366.616" stroke="#1E223B" stroke-width="3" stroke-linecap="round" stroke-linejoin="round"/>
<path d="M331.334 86.1708H351.495" stroke="#1E223B" stroke-width="3" stroke-linecap="round" stroke-linejoin="round"/>
<path d="M391.997 15.4771H414.679" stroke="#1E223B" stroke-width="3" stroke-linecap="round" stroke-linejoin="round"/>
<path d="M391.997 21.4035H406.278" stroke="#1E223B" stroke-width="3" stroke-linecap="round" stroke-linejoin="round"/>
<path d="M391.469 75.697H393.989" stroke="#1E223B" stroke-width="2" stroke-linecap="round" stroke-linejoin="round"/>
<path d="M400.657 75.697H419.318C428.178 75.697 436.674 79.2439 442.938 85.5574C449.203 91.8709 452.722 100.434 452.722 109.362V109.362C452.722 113.783 451.858 118.161 450.18 122.246C448.501 126.33 446.04 130.041 442.938 133.168C439.837 136.294 436.154 138.773 432.101 140.465C428.049 142.157 423.705 143.028 419.318 143.028H364.241C359.313 143.028 354.433 144.006 349.88 145.907C345.327 147.807 341.19 150.593 337.705 154.105C334.22 157.617 331.456 161.786 329.57 166.375C327.684 170.963 326.714 175.881 326.714 180.848V185.03" stroke="#1E223B" stroke-width="2" stroke-linecap="round" stroke-linejoin="round" stroke-dasharray="5.95 7.94"/>
<path d="M326.714 188.391V190.931" stroke="#1E223B" stroke-width="2" stroke-linecap="round" stroke-linejoin="round"/>
<path d="M78.7764 285.84H184.239" stroke="#1E223B" stroke-width="2" stroke-linecap="round" stroke-linejoin="round" stroke-dasharray="6 8"/>
<path d="M76.0714 477.929H98.1229C108.174 477.929 117.813 473.905 124.921 466.742C132.028 459.58 136.02 449.865 136.02 439.735V423.654C136.02 413.577 139.993 403.912 147.063 396.786C154.134 389.659 163.724 385.656 173.723 385.656H185.584" stroke="#1E223B" stroke-width="2" stroke-linecap="round" stroke-linejoin="round"/>
<path d="M187.929 78.4312H199.317C207.26 78.4314 214.878 81.6117 220.495 87.2725C226.112 92.9332 229.267 100.611 229.267 108.616V108.616C229.267 112.58 230.042 116.505 231.547 120.167C233.052 123.829 235.258 127.157 238.039 129.96C240.82 132.763 244.122 134.986 247.756 136.503C251.39 138.02 255.284 138.8 259.217 138.8H275.762C283.706 138.8 291.323 141.981 296.94 147.641C302.557 153.302 305.712 160.98 305.712 168.985V190.931" stroke="#1E223B" stroke-width="2" stroke-linecap="round" stroke-linejoin="round" stroke-dasharray="6 8"/>
<path d="M452.722 279.822H496.852C500.688 279.823 504.485 279.062 508.029 277.583C511.573 276.104 514.792 273.936 517.505 271.203C520.217 268.47 522.368 265.225 523.836 261.654C525.304 258.083 526.059 254.255 526.059 250.39V172.461" stroke="#1E223B" stroke-width="2" stroke-linecap="round" stroke-linejoin="round"/>
<path d="M635.566 537.634C649.721 537.634 661.196 526.069 661.196 511.803C661.196 497.537 649.721 485.972 635.566 485.972C621.411 485.972 609.936 497.537 609.936 511.803C609.936 526.069 621.411 537.634 635.566 537.634Z" stroke="#1E223B" stroke-width="2" stroke-linecap="round" stroke-linejoin="round"/>
<path d="M452.722 331.202H610.863" stroke="#1E223B" stroke-width="2" stroke-linecap="round" stroke-linejoin="round" stroke-dasharray="6 8"/>
<path d="M612.226 556.474C628.644 556.474 641.954 543.061 641.954 526.514C641.954 509.968 628.644 496.555 612.226 496.555C595.809 496.555 582.499 509.968 582.499 526.514C582.499 543.061 595.809 556.474 612.226 556.474Z" fill="white"/>
<path d="M612.226 556.474C628.644 556.474 641.954 543.061 641.954 526.514C641.954 509.968 628.644 496.555 612.226 496.555C595.809 496.555 582.499 509.968 582.499 526.514C582.499 543.061 595.809 556.474 612.226 556.474Z" stroke="#1E223B" stroke-width="2" stroke-linecap="round" stroke-linejoin="round"/>
<path d="M582.499 526.515H452.722" stroke="#1E223B" stroke-width="2" stroke-linecap="round" stroke-linejoin="round" stroke-dasharray="6 8"/>
<path opacity="0.39" d="M459.023 17.1704C462.502 17.1704 465.323 14.3275 465.323 10.8206C465.323 7.31376 462.502 4.47089 459.023 4.47089C455.543 4.47089 452.722 7.31376 452.722 10.8206C452.722 14.3275 455.543 17.1704 459.023 17.1704Z" fill="white"/>
<path d="M459.023 17.1704C462.502 17.1704 465.323 14.3275 465.323 10.8206C465.323 7.31376 462.502 4.47089 459.023 4.47089C455.543 4.47089 452.722 7.31376 452.722 10.8206C452.722 14.3275 455.543 17.1704 459.023 17.1704Z" stroke="#1E223B" stroke-width="2" stroke-linecap="round" stroke-linejoin="round"/>
<path d="M599.527 553.608L612.226 526.515L641.613 531.06" stroke="#1E223B" stroke-width="2" stroke-linecap="round" stroke-linejoin="round"/>
<path d="M602.73 468.104H543.931C539.736 468.104 536.336 471.531 536.336 475.759V498.724C536.336 502.952 539.736 506.379 543.931 506.379H602.73C606.925 506.379 610.326 502.952 610.326 498.724V475.759C610.326 471.531 606.925 468.104 602.73 468.104Z" fill="#F73E59"/>
<path d="M602.73 468.104H543.931C539.736 468.104 536.336 471.531 536.336 475.759V498.724C536.336 502.952 539.736 506.379 543.931 506.379H602.73C606.925 506.379 610.326 502.952 610.326 498.724V475.759C610.326 471.531 606.925 468.104 602.73 468.104Z" stroke="#1E223B" stroke-width="2" stroke-linecap="round" stroke-linejoin="round"/>
<path d="M545.931 493.935L547.724 491.444C548.453 492.245 549.339 492.885 550.326 493.323C551.313 493.762 552.379 493.989 553.458 493.99C556.062 493.99 557.07 492.703 557.07 491.471C557.07 487.637 546.529 490.02 546.529 483.311C546.529 480.272 549.133 477.943 553.131 477.943C554.371 477.9 555.608 478.105 556.77 478.547C557.931 478.989 558.994 479.659 559.897 480.517L558.103 482.9C557.405 482.216 556.581 481.678 555.676 481.316C554.771 480.955 553.805 480.777 552.832 480.792C550.984 480.792 549.789 481.724 549.789 483.065C549.789 486.487 560.332 484.379 560.332 491.169C560.332 494.209 558.185 496.837 553.322 496.837C551.958 496.892 550.597 496.663 549.326 496.163C548.054 495.664 546.898 494.905 545.931 493.935Z" fill="white"/>
<path d="M564.489 487.389C564.489 481.941 568.32 477.943 573.754 477.943C579.16 477.943 583.019 481.941 583.019 487.389C583.067 489.81 582.202 492.159 580.6 493.963L582.095 495.656L579.894 497.518L578.318 495.74C576.909 496.477 575.342 496.853 573.754 496.835C568.32 496.837 564.489 492.84 564.489 487.389ZM576.307 493.442L574.053 490.867L576.28 489.005L578.535 491.578C579.363 490.342 579.79 488.878 579.758 487.388C579.758 483.61 577.394 480.79 573.754 480.79C570.086 480.79 567.749 483.61 567.749 487.388C567.749 491.14 570.086 493.991 573.754 493.991C574.635 494 575.507 493.813 576.307 493.443V493.442Z" fill="white"/>
<path d="M587.888 496.509V478.245H591.066V493.69H599.054V496.51L587.888 496.509Z" fill="white"/>
<path d="M117.441 95.3729H27.8278C22.8217 95.3729 18.7635 99.4629 18.7635 104.508V130.433C18.7635 135.478 22.8217 139.568 27.8278 139.568H117.441C122.447 139.568 126.505 135.478 126.505 130.433V104.508C126.505 99.4629 122.447 95.3729 117.441 95.3729Z" fill="#E44D26" stroke="#1E223B" stroke-width="2" stroke-miterlimit="10"/>
<path d="M117.441 95.3729H27.8278C22.8217 95.3729 18.7635 99.4629 18.7635 104.508V130.433C18.7635 135.478 22.8217 139.568 27.8278 139.568H117.441C122.447 139.568 126.505 135.478 126.505 130.433V104.508C126.505 99.4629 122.447 95.3729 117.441 95.3729Z" stroke="#1E223B" stroke-width="2" stroke-linecap="round" stroke-linejoin="round"/>
<path d="M45.2942 127.486V118.717H34.9564V127.486H31.4702V107.456H34.9564V115.623H45.2942V107.456H48.7804V127.486H45.2942Z" fill="white"/>
<path d="M59.986 127.487V110.554H53.967V107.461H69.4879V110.554H63.4689V127.487H59.986Z" fill="white"/>
<path d="M91.8385 127.486V112.02L85.7598 127.486H84.2729L78.1657 112.021V127.486H74.6794V107.456H79.5955L85.0189 121.209L90.4112 107.456H95.3272V127.486H91.8385Z" fill="white"/>
<path d="M101.553 127.486V107.456H105.038V124.388H113.798V127.486H101.553Z" fill="white"/>
</svg>
