<svg width="20" height="14" viewBox="0 0 20 14" fill="none" xmlns="http://www.w3.org/2000/svg">
<path d="M12.394 9.79032C12.6525 10.3061 13.0536 10.7396 13.5512 11.041C14.0488 11.3425 14.6228 11.4996 15.2071 11.4944C16.3886 11.4944 17.1436 10.913 17.1436 10.1102C17.1436 9.1482 16.3678 8.80705 15.0679 8.24693L14.3546 7.94596C12.2973 7.08324 10.9299 6.00237 10.9299 3.71764C10.9299 1.61249 12.5598 0.0108789 15.1062 0.0108789C15.9327 -0.0481417 16.7585 0.133922 17.4804 0.534307C18.2023 0.934693 18.7883 1.53563 19.1651 2.262L16.9444 3.66515C16.799 3.30522 16.5458 2.99735 16.2183 2.78246C15.8909 2.56757 15.5048 2.45583 15.1112 2.46209C14.9397 2.44511 14.7665 2.46349 14.6026 2.51606C14.4387 2.56863 14.2877 2.65425 14.1593 2.76744C14.0309 2.88063 13.9278 3.01892 13.8567 3.17348C13.7856 3.32805 13.748 3.49549 13.7464 3.66515C13.7464 4.50737 14.2763 4.8477 15.4962 5.36927L16.2095 5.66942C18.6326 6.69206 20 7.73438 20 10.0782C20 12.6048 17.9835 13.9891 15.2746 13.9891C14.2194 14.0552 13.1673 13.8193 12.2453 13.31C11.3233 12.8007 10.5707 12.0397 10.0783 11.1188L12.394 9.79032ZM2.32147 10.0363C2.76977 10.8187 3.17724 11.4797 4.15465 11.4797C5.09124 11.4797 5.68286 11.1188 5.68286 9.71651V0.174894H8.53429V9.75588C8.53429 12.6614 6.80277 13.9842 4.27631 13.9842C3.38388 14.0317 2.49772 13.8123 1.73444 13.3547C0.971149 12.8971 0.366486 12.2229 0 11.4206L2.32147 10.0363Z" fill="#F5DE19"/>
</svg>
