<svg width="149" height="42" viewBox="0 0 149 42" fill="none" xmlns="http://www.w3.org/2000/svg">
<path d="M2.44938 33V7.08H7.05738V33H2.44938ZM20.4418 33.432C18.6418 33.432 17.0458 33.048 15.6538 32.28C14.2618 31.512 13.1698 30.432 12.3778 29.04C11.5858 27.648 11.1898 26.04 11.1898 24.216C11.1898 22.368 11.5738 20.724 12.3418 19.284C13.1338 17.844 14.2138 16.728 15.5818 15.936C16.9738 15.12 18.6058 14.712 20.4778 14.712C22.2298 14.712 23.7778 15.096 25.1218 15.864C26.4658 16.632 27.5098 17.688 28.2538 19.032C29.0218 20.352 29.4058 21.828 29.4058 23.46C29.4058 23.724 29.3938 24 29.3698 24.288C29.3698 24.576 29.3578 24.876 29.3338 25.188H15.7618C15.8578 26.58 16.3378 27.672 17.2018 28.464C18.0898 29.256 19.1578 29.652 20.4058 29.652C21.3418 29.652 22.1218 29.448 22.7458 29.04C23.3938 28.608 23.8738 28.056 24.1858 27.384H28.8658C28.5298 28.512 27.9658 29.544 27.1738 30.48C26.4058 31.392 25.4458 32.112 24.2938 32.64C23.1658 33.168 21.8818 33.432 20.4418 33.432ZM20.4778 18.456C19.3498 18.456 18.3538 18.78 17.4898 19.428C16.6258 20.052 16.0738 21.012 15.8338 22.308H24.7258C24.6538 21.132 24.2218 20.196 23.4298 19.5C22.6378 18.804 21.6538 18.456 20.4778 18.456ZM39.4374 33.432C37.9014 33.432 36.6414 33.192 35.6574 32.712C34.6734 32.208 33.9414 31.548 33.4614 30.732C32.9814 29.916 32.7414 29.016 32.7414 28.032C32.7414 26.376 33.3894 25.032 34.6854 24C35.9814 22.968 37.9254 22.452 40.5174 22.452H45.0534V22.02C45.0534 20.796 44.7054 19.896 44.0094 19.32C43.3134 18.744 42.4494 18.456 41.4174 18.456C40.4814 18.456 39.6654 18.684 38.9694 19.14C38.2734 19.572 37.8414 20.22 37.6734 21.084H33.1734C33.2934 19.788 33.7254 18.66 34.4694 17.7C35.2374 16.74 36.2214 16.008 37.4214 15.504C38.6214 14.976 39.9654 14.712 41.4534 14.712C43.9974 14.712 46.0014 15.348 47.4654 16.62C48.9294 17.892 49.6614 19.692 49.6614 22.02V33H45.7374L45.3054 30.12C44.7774 31.08 44.0334 31.872 43.0734 32.496C42.1374 33.12 40.9254 33.432 39.4374 33.432ZM40.4814 29.832C41.8014 29.832 42.8214 29.4 43.5414 28.536C44.2854 27.672 44.7534 26.604 44.9454 25.332H41.0214C39.7974 25.332 38.9214 25.56 38.3934 26.016C37.8654 26.448 37.6014 26.988 37.6014 27.636C37.6014 28.332 37.8654 28.872 38.3934 29.256C38.9214 29.64 39.6174 29.832 40.4814 29.832ZM54.0588 33V15.144H58.1628L58.5948 18.492C59.2428 17.34 60.1188 16.428 61.2227 15.756C62.3508 15.06 63.6708 14.712 65.1828 14.712V19.572H63.8868C62.8788 19.572 61.9788 19.728 61.1868 20.04C60.3948 20.352 59.7708 20.892 59.3148 21.66C58.8828 22.428 58.6668 23.496 58.6668 24.864V33H54.0588ZM68.3322 33V15.144H72.4002L72.7602 18.168C73.3122 17.112 74.1042 16.272 75.1362 15.648C76.1922 15.024 77.4282 14.712 78.8442 14.712C81.0522 14.712 82.7682 15.408 83.9922 16.8C85.2162 18.192 85.8282 20.232 85.8282 22.92V33H81.2202V23.352C81.2202 21.816 80.9082 20.64 80.2842 19.824C79.6602 19.008 78.6882 18.6 77.3682 18.6C76.0722 18.6 75.0042 19.056 74.1642 19.968C73.3482 20.88 72.9402 22.152 72.9402 23.784V33H68.3322Z" fill="#1E223B"/>
<path d="M92.7185 12.372C91.8785 12.372 91.1825 12.12 90.6305 11.616C90.1025 11.112 89.8385 10.476 89.8385 9.708C89.8385 8.94 90.1025 8.316 90.6305 7.836C91.1825 7.332 91.8785 7.08 92.7185 7.08C93.5585 7.08 94.2425 7.332 94.7705 7.836C95.3225 8.316 95.5985 8.94 95.5985 9.708C95.5985 10.476 95.3225 11.112 94.7705 11.616C94.2425 12.12 93.5585 12.372 92.7185 12.372ZM90.4145 33V15.144H95.0225V33H90.4145ZM99.8322 33V15.144H103.9L104.26 18.168C104.812 17.112 105.604 16.272 106.636 15.648C107.692 15.024 108.928 14.712 110.344 14.712C112.552 14.712 114.268 15.408 115.492 16.8C116.716 18.192 117.328 20.232 117.328 22.92V33H112.72V23.352C112.72 21.816 112.408 20.64 111.784 19.824C111.16 19.008 110.188 18.6 108.868 18.6C107.572 18.6 106.504 19.056 105.664 19.968C104.848 20.88 104.44 22.152 104.44 23.784V33H99.8322ZM129.295 27.672C128.431 27.672 127.627 27.576 126.883 27.384L125.551 28.716C125.959 28.932 126.511 29.112 127.207 29.256C127.903 29.4 129.031 29.544 130.591 29.688C132.967 29.904 134.695 30.468 135.775 31.38C136.855 32.292 137.395 33.552 137.395 35.16C137.395 36.216 137.107 37.212 136.531 38.148C135.955 39.108 135.067 39.876 133.867 40.452C132.667 41.052 131.131 41.352 129.259 41.352C126.715 41.352 124.663 40.872 123.103 39.912C121.543 38.976 120.763 37.56 120.763 35.664C120.763 34.056 121.543 32.664 123.103 31.488C122.623 31.272 122.203 31.044 121.843 30.804C121.507 30.564 121.207 30.312 120.943 30.048V29.22L124.075 25.908C122.683 24.684 121.987 23.112 121.987 21.192C121.987 19.992 122.275 18.9 122.851 17.916C123.451 16.932 124.291 16.152 125.371 15.576C126.451 15 127.759 14.712 129.295 14.712C130.303 14.712 131.239 14.856 132.103 15.144H138.871V17.952L135.811 18.168C136.291 19.08 136.531 20.088 136.531 21.192C136.531 22.392 136.243 23.484 135.667 24.468C135.091 25.452 134.251 26.232 133.147 26.808C132.067 27.384 130.783 27.672 129.295 27.672ZM129.295 24.144C130.231 24.144 130.999 23.892 131.599 23.388C132.223 22.884 132.535 22.164 132.535 21.228C132.535 20.292 132.223 19.572 131.599 19.068C130.999 18.564 130.231 18.312 129.295 18.312C128.311 18.312 127.519 18.564 126.919 19.068C126.319 19.572 126.019 20.292 126.019 21.228C126.019 22.164 126.319 22.884 126.919 23.388C127.519 23.892 128.311 24.144 129.295 24.144ZM124.975 35.196C124.975 36.084 125.383 36.744 126.199 37.176C127.039 37.632 128.059 37.86 129.259 37.86C130.411 37.86 131.347 37.62 132.067 37.14C132.787 36.684 133.147 36.06 133.147 35.268C133.147 34.62 132.907 34.08 132.427 33.648C131.971 33.216 131.047 32.952 129.655 32.856C128.671 32.784 127.759 32.676 126.919 32.532C126.223 32.916 125.719 33.336 125.407 33.792C125.119 34.248 124.975 34.716 124.975 35.196Z" fill="url(#paint0_linear_10_150)"/>
<path d="M8.104 16.52V5.064H9.32L9.448 6.376C9.704 5.992 10.0667 5.64533 10.536 5.336C11.016 5.02667 11.624 4.872 12.36 4.872C13.1493 4.872 13.8373 5.05333 14.424 5.416C15.0107 5.77867 15.464 6.27467 15.784 6.904C16.1147 7.53333 16.28 8.248 16.28 9.048C16.28 9.848 16.1147 10.5627 15.784 11.192C15.464 11.8107 15.0053 12.3013 14.408 12.664C13.8213 13.016 13.1333 13.192 12.344 13.192C11.6933 13.192 11.112 13.0587 10.6 12.792C10.0987 12.5253 9.71467 12.152 9.448 11.672V16.52H8.104ZM12.2 12.024C12.7333 12.024 13.2027 11.9013 13.608 11.656C14.0133 11.4 14.3333 11.048 14.568 10.6C14.8027 10.152 14.92 9.62933 14.92 9.032C14.92 8.43467 14.8027 7.912 14.568 7.464C14.3333 7.016 14.0133 6.66933 13.608 6.424C13.2027 6.168 12.7333 6.04 12.2 6.04C11.6667 6.04 11.1973 6.168 10.792 6.424C10.3867 6.66933 10.0667 7.016 9.832 7.464C9.59733 7.912 9.48 8.43467 9.48 9.032C9.48 9.62933 9.59733 10.152 9.832 10.6C10.0667 11.048 10.3867 11.4 10.792 11.656C11.1973 11.9013 11.6667 12.024 12.2 12.024ZM18.1509 13V5.064H19.3669L19.4789 6.584C19.7242 6.06133 20.0975 5.64533 20.5989 5.336C21.1002 5.02667 21.7189 4.872 22.4549 4.872V6.28H22.0869C21.6175 6.28 21.1855 6.36533 20.7909 6.536C20.3962 6.696 20.0815 6.97333 19.8469 7.368C19.6122 7.76267 19.4949 8.30667 19.4949 9V13H18.1509ZM27.2825 13.192C26.5358 13.192 25.8638 13.0213 25.2665 12.68C24.6692 12.3387 24.1945 11.8587 23.8425 11.24C23.5012 10.6107 23.3305 9.87467 23.3305 9.032C23.3305 8.18933 23.5065 7.45867 23.8585 6.84C24.2105 6.21067 24.6852 5.72533 25.2825 5.384C25.8905 5.04267 26.5678 4.872 27.3145 4.872C28.0612 4.872 28.7332 5.04267 29.3305 5.384C29.9278 5.72533 30.3972 6.21067 30.7385 6.84C31.0905 7.45867 31.2665 8.18933 31.2665 9.032C31.2665 9.87467 31.0905 10.6107 30.7385 11.24C30.3865 11.8587 29.9065 12.3387 29.2985 12.68C28.7012 13.0213 28.0292 13.192 27.2825 13.192ZM27.2825 12.04C27.7412 12.04 28.1678 11.928 28.5625 11.704C28.9572 11.48 29.2772 11.144 29.5225 10.696C29.7678 10.248 29.8905 9.69333 29.8905 9.032C29.8905 8.37067 29.7678 7.816 29.5225 7.368C29.2878 6.92 28.9732 6.584 28.5785 6.36C28.1838 6.136 27.7625 6.024 27.3145 6.024C26.8558 6.024 26.4292 6.136 26.0345 6.36C25.6398 6.584 25.3198 6.92 25.0745 7.368C24.8292 7.816 24.7065 8.37067 24.7065 9.032C24.7065 9.69333 24.8292 10.248 25.0745 10.696C25.3198 11.144 25.6345 11.48 26.0185 11.704C26.4132 11.928 26.8345 12.04 27.2825 12.04ZM34.0153 3.304C33.7593 3.304 33.5406 3.21867 33.3593 3.048C33.1779 2.86667 33.0872 2.64267 33.0872 2.376C33.0872 2.12 33.1779 1.90667 33.3593 1.736C33.5406 1.56533 33.7593 1.48 34.0153 1.48C34.2713 1.48 34.4846 1.56533 34.6553 1.736C34.8366 1.90667 34.9273 2.12 34.9273 2.376C34.9273 2.64267 34.8366 2.86667 34.6553 3.048C34.4846 3.21867 34.2713 3.304 34.0153 3.304ZM31.5832 16.52V15.368H32.2073C32.6019 15.368 32.8846 15.2827 33.0553 15.112C33.2366 14.952 33.3273 14.6747 33.3273 14.28V5.064H34.6713V14.312C34.6713 15.08 34.4793 15.64 34.0953 15.992C33.7113 16.344 33.1513 16.52 32.4153 16.52H31.5832ZM40.5783 13.192C39.8209 13.192 39.1489 13.0213 38.5623 12.68C37.9756 12.328 37.5116 11.8427 37.1703 11.224C36.8396 10.6053 36.6743 9.87467 36.6743 9.032C36.6743 8.2 36.8396 7.47467 37.1703 6.856C37.5009 6.22667 37.9596 5.74133 38.5463 5.4C39.1436 5.048 39.8316 4.872 40.6102 4.872C41.3783 4.872 42.0396 5.048 42.5943 5.4C43.1596 5.74133 43.5916 6.19467 43.8903 6.76C44.1889 7.32533 44.3383 7.93333 44.3383 8.584C44.3383 8.70133 44.3329 8.81867 44.3223 8.936C44.3223 9.05333 44.3223 9.18667 44.3223 9.336H38.0023C38.0343 9.944 38.1729 10.4507 38.4183 10.856C38.6743 11.2507 38.9889 11.5493 39.3623 11.752C39.7463 11.9547 40.1516 12.056 40.5783 12.056C41.1329 12.056 41.5969 11.928 41.9703 11.672C42.3436 11.416 42.6156 11.0693 42.7863 10.632H44.1143C43.9009 11.368 43.4903 11.9813 42.8823 12.472C42.2849 12.952 41.5169 13.192 40.5783 13.192ZM40.5783 6.008C39.9383 6.008 39.3676 6.20533 38.8663 6.6C38.3756 6.984 38.0929 7.54933 38.0182 8.296H43.0103C42.9783 7.58133 42.7329 7.02133 42.2743 6.616C41.8156 6.21067 41.2503 6.008 40.5783 6.008ZM49.7676 13.192C49.0103 13.192 48.3276 13.0213 47.7196 12.68C47.1223 12.328 46.6476 11.8427 46.2956 11.224C45.9543 10.5947 45.7836 9.864 45.7836 9.032C45.7836 8.2 45.9543 7.47467 46.2956 6.856C46.6476 6.22667 47.1223 5.74133 47.7196 5.4C48.3276 5.048 49.0103 4.872 49.7676 4.872C50.7063 4.872 51.4956 5.11733 52.1356 5.608C52.7863 6.09867 53.197 6.75467 53.3676 7.576H51.9916C51.885 7.08533 51.6236 6.70667 51.2076 6.44C50.7916 6.16267 50.3063 6.024 49.7516 6.024C49.3036 6.024 48.8823 6.136 48.4876 6.36C48.093 6.584 47.773 6.92 47.5276 7.368C47.2823 7.816 47.1596 8.37067 47.1596 9.032C47.1596 9.69333 47.2823 10.248 47.5276 10.696C47.773 11.144 48.093 11.4853 48.4876 11.72C48.8823 11.944 49.3036 12.056 49.7516 12.056C50.3063 12.056 50.7916 11.9227 51.2076 11.656C51.6236 11.3787 51.885 10.9893 51.9916 10.488H53.3676C53.2076 11.288 52.8023 11.9387 52.1516 12.44C51.501 12.9413 50.7063 13.192 49.7676 13.192ZM58.1619 13C57.4365 13 56.8659 12.824 56.4499 12.472C56.0339 12.12 55.8259 11.4853 55.8259 10.568V6.2H54.4499V5.064H55.8259L56.0019 3.16H57.1699V5.064H59.5059V6.2H57.1699V10.568C57.1699 11.0693 57.2712 11.4107 57.4739 11.592C57.6765 11.7627 58.0339 11.848 58.5459 11.848H59.3779V13H58.1619Z" fill="#E1FCF7"/>
<line x1="132.5" y1="11" x2="132.5" y2="3" stroke="#FFCE31"/>
<line x1="138.539" y1="11.9769" x2="141.539" y2="4.80701" stroke="#FFCE31"/>
<line x1="141.799" y1="16.2149" x2="147.872" y2="13.5424" stroke="#FFCE31"/>
<defs>
<linearGradient id="paint0_linear_10_150" x1="140" y1="16.5" x2="92" y2="30.5" gradientUnits="userSpaceOnUse">
<stop offset="0.272445" stop-color="#FFCE31"/>
<stop offset="0.618564" stop-color="#E4E83C"/>
<stop offset="1" stop-color="#E4E83C"/>
</linearGradient>
</defs>
</svg>
