<svg width="20" height="20" viewBox="0 0 20 20" fill="none" xmlns="http://www.w3.org/2000/svg">
<path d="M10 11.5463C10.8629 11.5463 11.5625 10.8467 11.5625 9.98376C11.5625 9.12082 10.8629 8.42126 10 8.42126C9.13706 8.42126 8.4375 9.12082 8.4375 9.98376C8.4375 10.8467 9.13706 11.5463 10 11.5463Z" fill="#00D8FF"/>
<path d="M10 13.5663C8.12196 13.6117 6.24862 13.3586 4.45 12.8163C3.61914 12.5529 2.84421 12.138 2.16438 11.5925C1.90496 11.4062 1.68892 11.1659 1.53109 10.8883C1.37326 10.6106 1.27737 10.302 1.25 9.9838C1.25 8.95067 2.385 7.93817 4.28625 7.27567C6.13296 6.68864 8.06245 6.40413 10 6.43317C11.9117 6.40646 13.8153 6.68583 15.6388 7.26067C16.4389 7.51577 17.1876 7.91062 17.85 8.42692C18.105 8.60457 18.3178 8.83612 18.4733 9.10517C18.6288 9.37422 18.7233 9.67418 18.75 9.9838C18.75 11.0575 17.4813 12.1457 15.4375 12.8219C13.6737 13.3465 11.8399 13.5976 10 13.5663ZM10 7.18067C8.14632 7.15589 6.30052 7.42636 4.53187 7.98192C2.78188 8.59255 1.9975 9.42754 1.9975 9.98192C1.9975 10.5619 2.84063 11.4738 4.69187 12.1069C6.41255 12.6231 8.20413 12.8633 10 12.8188C11.7603 12.8503 13.515 12.6121 15.2031 12.1125C17.125 11.4757 18 10.5625 18 9.9838C17.9685 9.78519 17.8961 9.59528 17.7874 9.42606C17.6788 9.25684 17.5362 9.112 17.3688 9.00067C16.7761 8.54264 16.1073 8.19269 15.3931 7.96692C13.6488 7.41927 11.8281 7.15384 10 7.18067Z" fill="#00D8FF"/>
<path d="M6.45 17.7769C6.15844 17.7836 5.87032 17.7129 5.615 17.5719C4.72 17.0557 4.41 15.5669 4.78563 13.5888C5.19978 11.6957 5.91738 9.8821 6.91063 8.21817C7.84233 6.54886 9.03511 5.03937 10.4437 3.74692C11.0645 3.18111 11.7805 2.72976 12.5588 2.41379C12.8402 2.28188 13.1473 2.2135 13.4581 2.2135C13.769 2.2135 14.076 2.28188 14.3575 2.41379C15.2881 2.95004 15.5963 4.59254 15.1619 6.70067C14.7349 8.49102 14.036 10.2053 13.0894 11.7838C12.1905 13.4334 11.0352 14.9297 9.66688 16.2169C9.02362 16.8049 8.27708 17.2688 7.465 17.585C7.13989 17.7057 6.79673 17.7706 6.45 17.7769ZM7.55813 8.58942C6.61069 10.1827 5.92291 11.9167 5.52063 13.7263C5.175 15.5482 5.50688 16.6438 5.98938 16.9225C6.48938 17.2119 7.70312 16.9375 9.17688 15.65C10.4831 14.4169 11.5858 12.9845 12.4438 11.4063C13.3506 9.89724 14.0211 8.25826 14.4319 6.54629C14.8406 4.56192 14.4875 3.34692 13.9863 3.05817C13.7984 2.98619 13.5976 2.95396 13.3967 2.96354C13.1957 2.97311 12.9989 3.02428 12.8188 3.11379C12.1261 3.39964 11.4892 3.80544 10.9375 4.31254C9.59167 5.55054 8.45231 6.99563 7.5625 8.59317L7.55813 8.58942Z" fill="#00D8FF"/>
<path d="M13.5481 17.785C12.7012 17.785 11.6256 17.2725 10.5056 16.3094C9.07231 15.0052 7.85936 13.4777 6.91375 11.7862C5.93296 10.1452 5.22104 8.35783 4.805 6.49186C4.62457 5.67092 4.59113 4.82448 4.70625 3.99186C4.73286 3.68299 4.82691 3.38372 4.98177 3.11515C5.13662 2.84658 5.34851 2.61526 5.6025 2.43749C6.53187 1.89936 8.10875 2.45249 9.71812 3.88124C11.056 5.1451 12.1921 6.60668 13.0869 8.21499C14.0671 9.8177 14.7864 11.5659 15.2181 13.3944C15.4063 14.2454 15.4354 15.124 15.3037 15.9856C15.2724 16.3034 15.1728 16.6106 15.0116 16.8862C14.8504 17.1619 14.6316 17.3994 14.37 17.5825C14.1188 17.7217 13.8352 17.7916 13.5481 17.785ZM7.56062 11.41C8.46777 13.0265 9.62643 14.4883 10.9931 15.7406C12.3987 16.95 13.5137 17.21 13.9931 16.9281C14.4931 16.6375 14.8619 15.4512 14.4819 13.5319C14.0655 11.7862 13.3756 10.1174 12.4375 8.58749C11.5836 7.04819 10.4992 5.64865 9.22187 4.43749C7.70687 3.09249 6.47812 2.79186 5.9775 3.08186C5.82146 3.20866 5.69341 3.36644 5.60144 3.54523C5.50946 3.72402 5.45555 3.91994 5.44312 4.12061C5.34375 4.86317 5.37612 5.61743 5.53875 6.34874C5.93894 8.1332 6.62171 9.84225 7.56125 11.4112L7.56062 11.41Z" fill="#00D8FF"/>
</svg>
