<svg width="20" height="20" viewBox="0 0 20 20" fill="none" xmlns="http://www.w3.org/2000/svg">
<g clip-path="url(#clip0_9_69)">
<path d="M13.7501 3.12503C13.75 2.39182 14.0077 1.68192 14.4782 1.11954C14.9486 0.557159 15.6018 0.178106 16.3235 0.0486977C17.0452 -0.0807103 17.7895 0.047768 18.426 0.411654C19.0625 0.775541 19.5509 1.35166 19.8055 2.03922C20.0602 2.72678 20.065 3.482 19.8191 4.17274C19.5732 4.86348 19.0922 5.44576 18.4603 5.81771C17.8285 6.18965 17.0859 6.32757 16.3627 6.20734C15.6394 6.08711 14.9814 5.71639 14.5038 5.16003L6.10634 9.06003C6.29939 9.67183 6.29939 10.3282 6.10634 10.94L14.5038 14.84C15.0086 14.2529 15.7134 13.8742 16.4816 13.7771C17.2497 13.68 18.0266 13.8716 18.6616 14.3146C19.2965 14.7577 19.7444 15.4207 19.9184 16.1752C20.0924 16.9296 19.9801 17.7218 19.6033 18.3982C19.2265 19.0746 18.612 19.5871 17.8789 19.8362C17.1458 20.0854 16.3464 20.0535 15.6354 19.7468C14.9245 19.4401 14.3527 18.8804 14.031 18.1761C13.7092 17.4719 13.6603 16.6733 13.8938 15.935L5.49634 12.035C5.08063 12.5195 4.52653 12.865 3.90856 13.0251C3.2906 13.1852 2.63842 13.1523 2.03976 12.9306C1.4411 12.709 0.924682 12.3093 0.559971 11.7854C0.195261 11.2615 -0.000244141 10.6384 -0.000244141 10C-0.000244141 9.36166 0.195261 8.7386 0.559971 8.21467C0.924682 7.69074 1.4411 7.29107 2.03976 7.06943C2.63842 6.84779 3.2906 6.8148 3.90856 6.97492C4.52653 7.13503 5.08063 7.48056 5.49634 7.96503L13.8938 4.06503C13.7982 3.76086 13.7498 3.44386 13.7501 3.12503Z" fill="#E1FCF7"/>
</g>
<defs>
<clipPath id="clip0_9_69">
<rect width="20" height="20" fill="white"/>
</clipPath>
</defs>
</svg>
